<?xml version="1.0" encoding="UTF-8" standalone="no"?>
<svg
   xmlns:dc="http://purl.org/dc/elements/1.1/"
   xmlns:cc="http://creativecommons.org/ns#"
   xmlns:rdf="http://www.w3.org/1999/02/22-rdf-syntax-ns#"
   xmlns:svg="http://www.w3.org/2000/svg"
   xmlns="http://www.w3.org/2000/svg"
   xmlns:sodipodi="http://sodipodi.sourceforge.net/DTD/sodipodi-0.dtd"
   xmlns:inkscape="http://www.inkscape.org/namespaces/inkscape"
   width="5.52222in"
   height="8.88889in"
   viewBox="0 0 497 800"
   version="1.1"
   id="svg288"
   sodipodi:docname="clef.svg"
   inkscape:version="1.0.2 (e86c870879, 2021-01-15)">
  <metadata
     id="metadata294">
    <rdf:RDF>
      <cc:Work
         rdf:about="">
        <dc:format>image/svg+xml</dc:format>
        <dc:type
           rdf:resource="http://purl.org/dc/dcmitype/StillImage" />
      </cc:Work>
    </rdf:RDF>
  </metadata>
  <defs
     id="defs292" />
  <sodipodi:namedview
     pagecolor="#ffffff"
     bordercolor="#666666"
     borderopacity="1"
     objecttolerance="10"
     gridtolerance="10"
     guidetolerance="10"
     inkscape:pageopacity="0"
     inkscape:pageshadow="2"
     inkscape:window-width="2544"
     inkscape:window-height="1396"
     id="namedview290"
     showgrid="false"
     inkscape:zoom="1.1812498"
     inkscape:cx="265.06657"
     inkscape:cy="426.66673"
     inkscape:window-x="5"
     inkscape:window-y="33"
     inkscape:window-maximized="0"
     inkscape:current-layer="svg288" />
  <path
     id="path26"
     fill="none"
     stroke="#000000"
     stroke-width="1"
     d="m 270.08,27.43 c -3.545,-0.0925 -7.165,0.884531 -10.78371,2.783086 -3.61871,1.898555 -7.23613,4.718633 -10.77598,8.312226 -3.53984,3.593594 -7.00211,7.960704 -10.31051,12.953321 -3.30839,4.992617 -6.46293,10.610742 -9.3873,16.706367 -2.92438,6.095625 -5.61859,12.66875 -8.00637,19.571367 -2.38777,6.902617 -4.4691,14.134723 -6.16769,21.548323 -1.6986,7.41359 -3.01446,15.00867 -3.87129,22.63722 -0.85684,7.62856 -1.25465,15.29059 -1.11715,22.83809 0.0325,2.29875 0.15156,4.89297 0.35158,7.76436 0.20002,2.87138 0.481,6.01994 0.83733,9.42736 0.35632,3.40742 0.788,7.07371 1.28943,10.98057 0.50143,3.90685 1.0726,8.05427 1.70791,12.42396 0.63531,4.36969 1.33477,8.96164 2.09275,13.75756 0.75799,4.79592 1.57452,9.7958 2.44397,14.98135 0.86945,5.18554 1.79183,10.55675 2.76154,16.09533 0.96971,5.53857 1.98674,11.24451 3.04549,17.09951 -6.67625,6.91125 -13.48719,13.845 -20.29482,20.83303 -6.80764,6.98802 -13.61198,14.03033 -20.27502,21.15869 -6.66305,7.12836 -13.18481,14.34277 -19.42729,21.67502 -6.24248,7.33224 -12.20568,14.78232 -17.75162,22.38201 -5.54594,7.59969 -10.67461,15.34898 -15.24803,23.27967 -4.57342,7.93068 -8.59158,16.04275 -11.9165,24.36799 -3.32492,8.32523 -5.9566,16.86363 -7.75705,25.64697 -1.80045,8.78334 -2.76967,17.81162 -2.76967,27.11662 -0.10625,8.5275 0.45219,17.34703 1.70402,26.25072 1.25184,8.90369 3.19707,17.89155 5.86442,26.75569 2.66734,8.86414 6.05679,17.60457 10.19707,26.01341 4.14027,8.40885 9.03136,16.48612 14.70199,24.02393 5.67062,7.53781 12.12078,14.53617 19.37918,20.78721 7.2584,6.25103 15.32504,11.75474 24.22863,16.30326 8.9036,4.54851 18.64414,8.14183 29.25035,10.57209 10.60621,2.43025 22.07809,3.69744 34.44434,3.59369 1.89875,-0.0138 3.77359,-0.0552 5.62455,-0.12342 1.85096,-0.0683 3.67803,-0.16338 5.48123,-0.28455 1.8032,-0.12117 3.58254,-0.2684 5.33803,-0.44088 1.75549,-0.17248 3.48713,-0.37021 5.19494,-0.5924 1.70781,-0.22219 3.3918,-0.46883 5.05197,-0.73912 1.66018,-0.27029 3.29655,-0.56424 4.90912,-0.88104 1.61258,-0.31679 3.20137,-0.65644 4.76639,-1.01814 1.56502,-0.3617 3.10627,-0.74545 4.62377,-1.15045 1.13,6.1975 2.21281,12.23187 3.2425,18.08236 1.02969,5.85049 2.00625,11.51709 2.92375,16.97905 0.9175,5.46195 1.77594,10.71925 2.56937,15.75115 0.79344,5.03189 1.52188,9.83838 2.17938,14.39869 0.6575,4.56031 1.24406,8.87445 1.75375,12.92166 0.50969,4.04721 0.9425,7.82748 1.2925,11.32006 0.35,3.49258 0.61719,6.69746 0.79562,9.59389 0.17844,2.89642 0.26813,5.48439 0.26313,7.74314 0.04,8.90875 -1.38813,16.81406 -3.92674,23.7476 -2.53861,6.93353 -6.18771,12.89529 -10.58967,17.91693 -4.40195,5.02164 -9.55675,9.10317 -15.10677,12.27623 -5.55002,3.17307 -11.49526,5.43768 -17.47807,6.82549 -5.98281,1.38781 -12.0032,1.89883 -17.70354,1.56471 -5.70033,-0.33412 -11.0806,-1.51338 -15.78318,-3.50612 -4.70258,-1.99273 -8.72746,-4.79894 -11.71701,-8.38697 -2.98955,-3.58803 -4.94377,-7.95787 -5.50502,-13.07787 2.46625,-0.085 4.86969,-0.40422 7.18748,-0.93564 2.31779,-0.53143 4.54994,-1.27506 6.67361,-2.20889 2.12368,-0.93383 4.13887,-2.05785 6.02276,-3.35006 1.88388,-1.29221 3.63646,-2.7526 5.2349,-4.35916 1.59844,-1.60656 3.04273,-3.3593 4.31006,-5.23619 1.26732,-1.8769 2.35767,-3.87795 3.24822,-5.98115 0.89055,-2.10321 1.58129,-4.30856 2.0494,-6.59405 0.4681,-2.28549 0.71357,-4.65111 0.71357,-7.07486 0,-2.475 -0.25625,-4.89281 -0.74443,-7.22906 -0.48819,-2.33625 -1.2083,-4.59094 -2.13604,-6.73969 -0.92773,-2.14875 -2.06308,-4.19156 -3.38174,-6.10406 -1.31865,-1.9125 -2.8206,-3.69469 -4.48154,-5.32219 -1.66094,-1.6275 -3.48086,-3.10031 -5.43545,-4.39406 -1.95459,-1.29375 -4.04385,-2.40844 -6.24346,-3.31969 -2.19961,-0.91125 -4.50957,-1.61906 -6.90556,-2.09906 -2.396,-0.48 -4.87803,-0.73219 -7.42178,-0.73219 -1.3975,0 -2.77609,0.0767 -4.13189,0.22598 -1.35581,0.14925 -2.68881,0.37105 -3.99514,0.66121 -1.30633,0.29015 -2.58598,0.64867 -3.83506,1.07136 -1.24908,0.4227 -2.4676,0.90957 -3.65166,1.45645 -1.18406,0.54687 -2.33367,1.15375 -3.44494,1.81645 -1.11127,0.66269 -2.1842,1.38121 -3.2149,2.15136 -1.03071,0.77016 -2.01918,1.59196 -2.96155,2.46121 -0.94236,0.86926 -1.83861,1.78598 -2.68486,2.74598 -0.0188,0.02 -0.038,0.0398 -0.0576,0.0596 -0.0196,0.0197 -0.0396,0.0393 -0.0598,0.0589 -0.0202,0.0195 -0.0408,0.039 -0.0614,0.0584 -0.0207,0.0194 -0.0415,0.0388 -0.0625,0.0582 -0.0209,0.0194 -0.042,0.0388 -0.063,0.0582 -0.021,0.0194 -0.042,0.0389 -0.0628,0.0584 -0.0209,0.0195 -0.0416,0.0391 -0.0621,0.0589 -0.0205,0.0197 -0.0408,0.0396 -0.0608,0.0596 -0.19,0.2025 -0.37641,0.40984 -0.55963,0.62195 -0.18322,0.21211 -0.36326,0.42899 -0.54053,0.65055 -0.17726,0.22156 -0.35175,0.44781 -0.52388,0.67867 -0.17213,0.23086 -0.3419,0.46633 -0.50971,0.70633 -0.16781,0.24 -0.33367,0.48453 -0.49799,0.73352 -0.16431,0.24898 -0.32709,0.50242 -0.48873,0.76023 -0.16164,0.25781 -0.32215,0.52 -0.48193,0.78648 -0.15979,0.26649 -0.31885,0.53727 -0.4776,0.81227 -0.52125,0.88125 -1.01953,1.81078 -1.49273,2.79102 -0.47321,0.98023 -0.92133,2.01117 -1.34227,3.09523 -0.42094,1.08406 -0.81469,2.22125 -1.17914,3.41398 -0.36445,1.19274 -0.69961,2.44102 -1.00336,3.74727 -0.30375,1.30625 -0.57609,2.67047 -0.81492,4.09508 -0.23883,1.42461 -0.44414,2.90961 -0.61383,4.45742 -0.16969,1.54781 -0.30375,3.15844 -0.40008,4.8343 -0.0963,1.67586 -0.15492,3.41695 -0.17367,5.2257 0,7.4575 2.3575,14.58297 6.48312,21.11309 4.12563,6.53011 10.01938,12.46488 17.09188,17.54097 7.0725,5.0761 15.32375,9.29352 24.16437,12.38895 8.84063,3.09543 18.27063,5.06886 27.70063,5.65699 9.43,0.58812 18.86,-0.20906 27.70062,-2.65488 8.84063,-2.44582 17.09188,-6.54028 24.16438,-12.54668 7.0725,-6.00641 12.96625,-13.92477 17.09187,-24.0184 C 314.4225,723.16641 316.78,710.8975 316.78,696.19 c 0.0288,-1.97875 -0.0525,-4.33797 -0.23605,-7.05051 -0.18356,-2.71254 -0.46942,-5.7784 -0.84989,-9.17043 -0.38047,-3.39203 -0.85554,-7.11023 -1.41754,-11.12746 -0.56199,-4.01723 -1.2109,-8.33348 -1.93902,-12.9216 -0.72812,-4.58813 -1.53547,-9.44813 -2.41434,-14.55285 -0.87886,-5.10473 -1.82925,-10.45418 -2.84347,-16.02121 -1.01422,-5.56703 -2.09227,-11.35164 -3.22645,-17.32668 -1.13418,-5.97504 -2.32449,-12.14051 -3.56324,-18.46926 13.45625,-4.865 24.80797,-11.61922 34.17756,-19.7158 9.36959,-8.09658 16.75705,-17.53553 22.28478,-27.76998 5.52774,-10.23445 9.19575,-21.26442 11.12643,-32.54303 1.93068,-11.27861 2.12404,-22.80588 0.70248,-34.03494 -1.42156,-11.22906 -4.45805,-22.15992 -8.98705,-32.24572 -4.529,-10.0858 -10.55053,-19.32655 -17.94217,-27.17537 -7.39164,-7.84883 -16.1534,-14.30575 -26.16287,-18.82389 -10.00947,-4.51815 -21.26666,-7.09752 -33.64916,-7.19127 -0.96,0.01 -1.91578,0.0327 -2.8673,0.0682 -0.95153,0.0355 -1.89879,0.0839 -2.84176,0.14541 -0.94297,0.0615 -1.88164,0.13606 -2.81598,0.22393 -0.93434,0.0879 -1.86434,0.18904 -2.78996,0.30373 -0.92563,0.11469 -1.84688,0.24289 -2.76371,0.38482 -0.91684,0.14194 -1.82926,0.2976 -2.73723,0.46721 -0.90797,0.16961 -1.81148,0.35317 -2.71051,0.55088 -0.89902,0.19771 -1.79355,0.40959 -2.68355,0.63584 -0.705,-3.39375 -1.40703,-6.775 -2.1051,-10.14115 -0.69806,-3.36615 -1.39217,-6.71721 -2.08131,-10.05057 -0.68914,-3.33336 -1.37332,-6.64902 -2.05154,-9.94439 -0.67822,-3.29537 -1.35049,-6.57045 -2.0158,-9.82264 -0.66531,-3.25219 -1.32367,-6.48148 -1.97408,-9.68529 -0.65041,-3.20381 -1.29287,-6.38213 -1.92639,-9.53237 -0.63351,-3.15023 -1.25808,-6.27238 -1.87271,-9.36384 -0.61463,-3.09147 -1.21932,-6.15225 -1.81307,-9.17975 4.70125,-4.6175 9.32812,-9.40516 13.82432,-14.42041 4.49619,-5.01525 8.8617,-10.25811 13.04021,-15.786 4.17852,-5.52789 8.17004,-11.34082 11.91826,-17.49623 3.74823,-6.15541 7.25315,-12.6533 10.45846,-19.55111 3.20531,-6.89781 6.11102,-14.19555 8.6608,-21.95064 2.54979,-7.7551 4.74365,-15.96756 6.52529,-24.69483 1.78164,-8.72726 3.15106,-17.96933 4.05194,-27.78365 0.90088,-9.81432 1.33322,-20.20088 1.24072,-31.21713 0.015,-7.91125 -0.30141,-15.62656 -0.91047,-23.07275 -0.60906,-7.4462 -1.51078,-14.62327 -2.6664,-21.458031 -1.15563,-6.834766 -2.56516,-13.327227 -4.18985,-19.404199 -1.62469,-6.076973 -3.46453,-11.738458 -5.48078,-16.91127 -2.01625,-5.172812 -4.20891,-9.856953 -6.53922,-13.979238 -2.33031,-4.122285 -4.79828,-7.682715 -7.36516,-10.608106 -2.56687,-2.92539 -5.23265,-5.215742 -7.95859,-6.797871 C 275.67359,28.396406 272.8875,27.5225 270.08,27.43 Z m 6.69,61.23 c 1.605,-0.155 3.16859,-0.104531 4.67605,0.153672 1.50747,0.258203 2.95879,0.72414 4.33926,1.400078 1.38047,0.675937 2.69008,1.561875 3.9141,2.660078 1.22403,1.098203 2.36246,2.408672 3.40059,3.933672 1.03812,1.525 1.97594,3.26453 2.79871,5.22086 0.82277,1.95633 1.53051,4.12945 2.10848,6.52164 0.57797,2.39219 1.02617,5.00344 1.32988,7.83602 0.30371,2.83257 0.46293,5.88648 0.46293,9.16398 0.13,5.63 -0.24938,11.17078 -1.08619,16.63395 -0.83682,5.46316 -2.13108,10.84871 -3.83084,16.16824 -1.69977,5.31953 -3.80504,10.57304 -6.26389,15.77215 -2.45885,5.1991 -5.27127,10.34378 -8.38533,15.44566 -3.11406,5.10187 -6.52977,10.16094 -10.19518,15.18879 -3.66541,5.02785 -7.58052,10.02449 -11.69341,15.00152 -4.11289,4.97703 -8.42356,9.93446 -12.88006,14.88387 -4.45651,4.94941 -9.05885,9.89082 -13.7551,14.83582 -0.45,-2.70875 -0.88063,-5.35313 -1.29018,-7.92725 -0.40955,-2.57412 -0.79802,-5.07798 -1.16373,-7.50572 -0.3657,-2.42773 -0.70863,-4.77933 -1.02709,-7.04892 -0.31845,-2.26959 -0.61244,-4.45717 -0.88025,-6.55686 -0.26781,-2.09969 -0.50945,-4.11148 -0.72322,-6.02951 -0.21377,-1.91803 -0.39967,-3.74229 -0.556,-5.4669 -0.15633,-1.72461 -0.28308,-3.34957 -0.37857,-4.869 -0.0955,-1.51943 -0.15971,-2.93334 -0.19096,-4.23584 0.1325,-8.79375 0.69875,-17.09406 1.63002,-24.89092 0.93127,-7.79685 2.22756,-15.09025 3.82014,-21.87017 1.59257,-6.77993 3.48144,-13.04637 5.59787,-18.78932 2.11642,-5.74295 4.46041,-10.9624 6.96322,-15.64834 2.50281,-4.68594 5.16445,-8.83836 7.91619,-12.44725 2.75174,-3.60888 5.59358,-6.674234 8.45678,-9.186031 2.8632,-2.511797 5.74777,-4.470039 8.58498,-5.864707 2.83721,-1.394668 5.62705,-2.225762 8.3008,-2.483262 z m -40.33,233.47 c 0.5725,2.94875 1.15078,5.91719 1.73422,8.90322 0.58344,2.98604 1.17203,5.98967 1.76515,9.00881 0.59313,3.01914 1.19079,6.05379 1.79235,9.10186 0.60156,3.04806 1.20703,6.10955 1.81578,9.18236 0.60875,3.07281 1.22078,6.15695 1.83547,9.25033 0.61469,3.09338 1.23203,6.196 1.8514,9.30576 0.61938,3.10977 1.24079,6.22668 1.8636,9.34866 0.62281,3.12197 1.24703,6.249 1.87203,9.379 -8.195,2.915 -15.85734,6.89344 -22.81061,11.70377 -6.95326,4.81033 -13.19744,10.45256 -18.55611,16.69514 -5.35867,6.24257 -9.83183,13.0855 -13.24307,20.29724 -3.41123,7.21174 -5.76052,14.79229 -6.87146,22.5101 -1.11094,7.71781 -0.98352,15.57289 0.55869,23.33369 1.54221,7.7608 4.4992,15.42733 9.0474,22.76803 4.54821,7.3407 10.68762,14.35558 18.59467,20.8131 7.90705,6.45752 17.58174,12.35768 29.20049,17.46893 -7.0825,-6.02875 -12.84391,-12.19594 -17.42404,-18.39217 -4.58014,-6.19623 -7.97901,-12.4215 -10.33643,-18.56642 -2.35742,-6.14493 -3.6734,-12.2095 -4.08775,-18.08432 -0.41436,-5.87482 0.0729,-11.5599 1.32197,-16.94584 1.24906,-5.38594 3.25992,-10.47273 5.89275,-15.151 2.63284,-4.67826 5.88764,-8.94798 9.62459,-12.69978 3.73696,-3.7518 7.95606,-6.98567 12.51748,-9.59221 4.56143,-2.60654 9.46518,-4.58576 14.57143,-5.82826 1.28375,6.41 2.56391,12.80953 3.83715,19.18646 1.27324,6.37694 2.53957,12.73127 3.79566,19.05088 1.2561,6.31961 2.50196,12.6045 3.73426,18.84252 1.2323,6.23803 2.45105,12.4292 3.65293,18.56139 1.20188,6.13219 2.38688,12.20539 3.55168,18.20748 1.1648,6.00209 2.30941,11.93307 3.43051,17.7808 1.12109,5.84774 2.21867,11.61223 3.28941,17.28135 1.07074,5.66912 2.11465,11.24287 3.1284,16.70912 -1.37625,0.4825 -2.78125,0.93984 -4.21563,1.37098 -1.43437,0.43113 -2.89812,0.83605 -4.39187,1.21371 -1.49375,0.37765 -3.0175,0.72804 -4.57188,1.05011 -1.55437,0.32207 -3.13937,0.61582 -4.75562,0.8802 -1.61625,0.26438 -3.26375,0.49938 -4.94313,0.70395 -1.67937,0.20457 -3.39062,0.37871 -5.13437,0.52136 -1.74375,0.14266 -3.52,0.25383 -5.32938,0.33246 -1.80937,0.0786 -3.65187,0.12473 -5.52812,0.13723 -4.69,0 -9.96531,-0.37297 -15.60633,-1.20227 -5.64101,-0.82929 -11.64773,-2.11492 -17.80055,-3.94023 -6.15281,-1.82531 -12.45171,-4.19031 -18.6771,-7.17836 -6.2254,-2.98805 -12.37727,-6.59914 -18.23602,-10.91664 -5.85875,-4.3175 -11.42437,-9.34141 -16.47727,-15.15508 -5.05289,-5.81367 -9.59304,-12.41711 -13.40085,-19.89367 -3.80782,-7.47656 -6.88329,-15.82625 -9.0068,-25.13242 C 137.19156,495.04516 136.02,484.7825 136.02,473.48 c 0,-9.465 0.82016,-18.22766 2.34904,-26.40328 1.52889,-8.17563 3.76651,-15.76422 6.60143,-22.8811 2.83492,-7.11687 6.26715,-13.76203 10.18525,-20.05078 3.91811,-6.28875 8.32209,-12.22109 13.10053,-17.91234 4.77844,-5.69125 9.93133,-11.14141 15.34725,-16.46578 5.41591,-5.32438 11.09486,-10.52297 16.92541,-15.71109 5.83054,-5.18813 11.81269,-10.36579 17.83502,-15.64829 6.02232,-5.2825 12.08482,-10.66984 18.07607,-16.27734 z m 31.84,112.17 c 0.205,-0.0125 0.41203,-0.0228 0.62061,-0.0312 0.20857,-0.008 0.41869,-0.0148 0.62986,-0.0195 0.21117,-0.005 0.4234,-0.008 0.63619,-0.009 0.21279,-0.001 0.42615,-0.001 0.63959,-2.3e-4 0.21344,0.001 0.42695,0.004 0.64006,0.007 0.2131,0.004 0.4258,0.008 0.6376,0.0134 0.21179,0.005 0.42269,0.0114 0.6322,0.018 0.20951,0.007 0.41764,0.0138 0.62389,0.0213 8.5325,0 16.40062,1.69359 23.50141,4.72502 7.10078,3.03143 13.43421,7.40068 18.89734,12.75201 5.46312,5.35133 10.05594,11.68473 13.67547,18.64443 3.61953,6.95971 6.26578,14.54573 7.83578,22.40229 1.57,7.85656 2.06375,15.98367 1.37828,24.02557 -0.68547,8.04189 -2.55016,15.99857 -5.69703,23.51427 -3.14688,7.51571 -7.57594,14.59043 -13.39016,20.86842 C 313.72687,567.51 306.5275,572.99125 297.84,577.32 c -1.08125,-5.4325 -2.19125,-10.96484 -3.32627,-16.58428 -1.13502,-5.61943 -2.29506,-11.32595 -3.47639,-17.10681 -1.18132,-5.78086 -2.38394,-11.63606 -3.60412,-17.55284 -1.22017,-5.91677 -2.45791,-11.89513 -3.70947,-17.92232 -1.25156,-6.02719 -2.51695,-12.1032 -3.79244,-18.21529 -1.27549,-6.11209 -2.56108,-12.26026 -3.85303,-18.43174 -1.29195,-6.17149 -2.59027,-12.36629 -3.89123,-18.57166 C 270.88609,446.72969 269.5825,440.51375 268.28,434.3 Z"
     sodipodi:nodetypes="cssssssscssssssscssssssscssssssscssssssscssssssscssssssscssssssssssssssssssssssscssssssscssssssscssssssscssssssscssssssscssssssscssssssscssssssscssssssscsssssssccssssssscssssssscssssssscsssssssccssssssscssssssscssssssscssssssscssssssscsssssssssssssssccssssssscssssssscsssssssc" />
</svg>
