<?xml version="1.0" encoding="UTF-8" standalone="no"?>
<svg
   xmlns:dc="http://purl.org/dc/elements/1.1/"
   xmlns:cc="http://creativecommons.org/ns#"
   xmlns:rdf="http://www.w3.org/1999/02/22-rdf-syntax-ns#"
   xmlns:svg="http://www.w3.org/2000/svg"
   xmlns="http://www.w3.org/2000/svg"
   xmlns:sodipodi="http://sodipodi.sourceforge.net/DTD/sodipodi-0.dtd"
   xmlns:inkscape="http://www.inkscape.org/namespaces/inkscape"
   width="864"
   height="864"
   version="1.1"
   id="svg335"
   sodipodi:docname="deer.svg"
   inkscape:version="1.0.2 (e86c870879, 2021-01-15)">
  <metadata
     id="metadata341">
    <rdf:RDF>
      <cc:Work
         rdf:about="">
        <dc:format>image/svg+xml</dc:format>
        <dc:type
           rdf:resource="http://purl.org/dc/dcmitype/StillImage" />
      </cc:Work>
    </rdf:RDF>
  </metadata>
  <defs
     id="defs339" />
  <sodipodi:namedview
     pagecolor="#ffffff"
     bordercolor="#666666"
     borderopacity="1"
     objecttolerance="10"
     gridtolerance="10"
     guidetolerance="10"
     inkscape:pageopacity="0"
     inkscape:pageshadow="2"
     inkscape:window-width="1393"
     inkscape:window-height="1396"
     id="namedview337"
     showgrid="false"
     inkscape:zoom="1.1666667"
     inkscape:cx="432"
     inkscape:cy="432"
     inkscape:window-x="5"
     inkscape:window-y="33"
     inkscape:window-maximized="0"
     inkscape:current-layer="svg335" />
  <path
     fill-rule="evenodd"
     clip-rule="evenodd"
     d="m 523.81,828 c -0.41375,-3.549 -0.99375,-7.04212 -1.71658,-10.4912 -0.72283,-3.44908 -1.58848,-6.85411 -2.57355,-10.22693 -0.98506,-3.37281 -2.08953,-6.7134 -3.28998,-10.0336 -1.20045,-3.32021 -2.49689,-6.62002 -3.86589,-9.91127 -1.02275,-2.458 -1.94094,-4.95931 -2.79444,-7.48756 -0.8535,-2.52825 -1.64231,-5.08344 -2.40631,-7.64919 -0.764,-2.56575 -1.50319,-5.14206 -2.25744,-7.71256 -0.75425,-2.5705 -1.52356,-5.13519 -2.34781,-7.67769 -0.1115,-0.342 -0.25563,-0.7005 -0.4277,-1.05567 -0.17208,-0.35517 -0.37211,-0.70702 -0.59543,-1.03571 -0.22331,-0.32868 -0.4699,-0.63421 -0.7351,-0.89676 -0.26521,-0.26255 -0.54902,-0.48211 -0.84677,-0.63886 -4.45525,-2.3475 -8.51025,-5.04463 -12.21533,-8.04913 -3.70508,-3.0045 -7.06023,-6.31637 -10.1158,-9.89337 -3.05556,-3.577 -5.81153,-7.41913 -8.31823,-11.48413 -2.5067,-4.065 -4.76414,-8.35287 -6.82264,-12.82137 -0.185,-0.402 -0.39681,-0.80694 -0.63258,-1.20411 -0.23576,-0.39717 -0.49548,-0.78658 -0.7763,-1.15752 -0.28081,-0.37093 -0.58271,-0.7234 -0.90285,-1.0467 -0.32015,-0.3233 -0.65852,-0.61742 -1.01227,-0.87167 -3.3915,-2.43925 -6.45181,-5.12181 -9.23441,-8.00738 -2.78259,-2.88556 -5.28747,-5.97412 -7.56809,-9.22537 -2.28063,-3.25125 -4.337,-6.66519 -6.22259,-10.2015 -1.8856,-3.53631 -3.60041,-7.195 -5.19791,-10.93575 -0.56875,-1.3325 -1.08763,-2.68606 -1.57763,-4.05195 -0.49,-1.36589 -0.95112,-2.74411 -1.40437,-4.12593 -0.45325,-1.38181 -0.89863,-2.76721 -1.35713,-4.14748 -0.4585,-1.38026 -0.93012,-2.75539 -1.43587,-4.11664 -0.13925,-0.3745 -0.30369,-0.75125 -0.49055,-1.12211 -0.18686,-0.37086 -0.39614,-0.73583 -0.62508,-1.08677 -0.22893,-0.35093 -0.47753,-0.68784 -0.74301,-1.00257 -0.26549,-0.31474 -0.54786,-0.6073 -0.84436,-0.86955 -3.976,-3.51125 -7.94825,-7.03456 -11.84525,-10.62883 -3.897,-3.59426 -7.71875,-7.25948 -11.39375,-11.05455 -3.675,-3.79506 -7.20325,-7.71996 -10.51325,-11.8336 -3.31,-4.11365 -6.40175,-8.41602 -9.20375,-12.96602 -2.16724,-3.51925 -4.46586,-6.93576 -6.84175,-10.29149 -2.37589,-3.35574 -4.82905,-6.65071 -7.30536,-9.92689 -2.47632,-3.27619 -4.97579,-6.53359 -7.44431,-9.8142 -2.46852,-3.28061 -4.90608,-6.58442 -7.25858,-9.95342 -3.212,-4.6 -6.22719,-9.29319 -9.05883,-14.07569 -2.83164,-4.7825 -5.47973,-9.65431 -7.95755,-14.61156 -2.47781,-4.95725 -4.78534,-9.99994 -6.93585,-15.12419 -2.15052,-5.12425 -4.14402,-10.33006 -5.99377,-15.61356 -0.6025,-1.7215 -1.25813,-3.42456 -1.9473,-5.116 -0.68917,-1.69144 -1.41189,-3.37125 -2.14858,-5.04625 -0.73668,-1.675 -1.48734,-3.34519 -2.23239,-5.01738 -0.74504,-1.67218 -1.48448,-3.34637 -2.19873,-5.02937 -0.14325,-0.33675 -0.30275,-0.61856 -0.48628,-0.85288 -0.18353,-0.23431 -0.3911,-0.42112 -0.63047,-0.56787 -0.23938,-0.14675 -0.51056,-0.25344 -0.82134,-0.3275 -0.31079,-0.0741 -0.66116,-0.1155 -1.05891,-0.13175 -3.14875,-0.1285 -6.28025,-0.0994 -9.39791,0.0548 -3.11765,0.15429 -6.22147,0.43379 -9.31484,0.80616 -3.09338,0.37238 -6.17631,0.83762 -9.25222,1.36341 -3.07591,0.52578 -6.14478,1.11209 -9.21003,1.72659 -0.582,0.117 -1.16363,0.26919 -1.74066,0.45097 -0.57703,0.18178 -1.14947,0.39316 -1.71309,0.62853 -0.56363,0.23538 -1.11844,0.49475 -1.66022,0.77253 -0.54178,0.27778 -1.07053,0.57397 -1.58203,0.88297 -1.69575,1.02375 -3.40413,2.02963 -5.13461,2.98517 -1.73048,0.95555 -3.48308,1.86077 -5.26727,2.68321 -1.78418,0.82243 -3.59996,1.56209 -5.45682,2.18651 -1.85686,0.62442 -3.7548,1.13361 -5.7033,1.49511 -2.3155,0.4295 -4.62163,0.77475 -6.89953,0.93416 -2.27791,0.1594 -4.5276,0.13297 -6.73022,-0.18091 -2.20263,-0.31387 -4.35819,-0.91519 -6.44784,-1.90553 -2.08966,-0.99034 -4.11341,-2.36972 -6.05241,-4.23972 -0.72825,-0.70225 -1.54344,-1.31981 -2.41622,-1.87848 -0.87278,-0.55868 -1.80316,-1.05846 -2.76178,-1.52514 -0.95863,-0.46669 -1.9455,-0.90029 -2.93128,-1.32658 -0.98578,-0.4263 -1.97047,-0.8453 -2.92472,-1.2828 -0.81875,-0.3755 -1.50706,-0.79844 -2.08048,-1.27694 -0.57343,-0.4785 -1.03196,-1.01256 -1.39115,-1.61031 -0.35918,-0.59775 -0.61903,-1.25919 -0.79507,-1.99244 -0.17605,-0.73325 -0.2683,-1.53831 -0.2923,-2.42331 -0.0162,-0.5985 -0.0845,-1.20231 -0.19319,-1.80644 -0.10865,-0.60412 -0.25765,-1.20856 -0.43528,-1.80831 -0.17763,-0.59975 -0.38389,-1.19481 -0.60705,-1.78019 -0.22316,-0.58537 -0.46323,-1.16106 -0.70848,-1.72206 -0.40625,-0.9285 -0.70706,-1.847 -0.90245,-2.75803 -0.19539,-0.91103 -0.28536,-1.81459 -0.26993,-2.71322 0.0154,-0.89862 0.13629,-1.79231 0.36252,-2.68359 0.22623,-0.89128 0.55786,-1.78016 0.99486,-2.66916 0.95575,-1.9425 2.008,-3.8175 3.14409,-5.63137 1.1361,-1.81388 2.35603,-3.56663 3.64716,-5.26463 1.29112,-1.698 2.65344,-3.34125 4.07428,-4.93612 1.42084,-1.59488 2.90022,-3.14138 4.42547,-4.64588 2.12675,-2.098 4.27681,-4.17225 6.44031,-6.23286 2.1635,-2.06061 4.34044,-4.10758 6.52094,-6.15101 2.1805,-2.04344 4.36456,-4.08335 6.54231,-6.12983 2.17775,-2.04649 4.34919,-4.09955 6.50444,-6.1693 0.378,-0.36325 0.75087,-0.74819 1.10967,-1.15128 0.3588,-0.40309 0.70352,-0.82434 1.0252,-1.26022 0.32169,-0.43587 0.62035,-0.88637 0.88702,-1.34797 0.26667,-0.46159 0.50136,-0.93428 0.69511,-1.41453 0.94475,-2.345 1.878,-4.69481 2.80139,-7.04864 0.92339,-2.35383 1.83692,-4.71167 2.74223,-7.07273 0.90532,-2.36107 1.80241,-4.72535 2.69293,-7.09205 0.89051,-2.3667 1.77445,-4.73583 2.65345,-7.10658 0.1195,-0.322 0.20725,-0.66681 0.26678,-1.02423 0.0595,-0.35743 0.0908,-0.72746 0.0975,-1.09989 0.007,-0.37244 -0.0114,-0.74729 -0.0507,-1.11433 -0.0392,-0.36705 -0.0996,-0.7263 -0.17759,-1.06755 -0.17775,-0.777 -0.33131,-1.54719 -0.43461,-2.31436 -0.1033,-0.76717 -0.15633,-1.53133 -0.13302,-2.29626 0.0233,-0.76494 0.12297,-1.53066 0.32505,-2.30096 0.20208,-0.77029 0.50658,-1.54517 0.93958,-2.32842 -2.75775,-1.0815 -5.40288,-2.30737 -7.95433,-3.65331 -2.55145,-1.34594 -5.00923,-2.81194 -7.3923,-4.37369 -2.38306,-1.56175 -4.6914,-3.21925 -6.94398,-4.94819 -2.25258,-1.72893 -4.44939,-3.52931 -6.60939,-5.37681 -4.306,-3.68275 -8.29056,-7.58087 -11.93677,-11.7007 -3.6462,-4.11983 -6.95404,-8.46136 -9.90661,-13.03092 -2.95256,-4.56957 -5.54984,-9.36716 -7.77492,-14.39911 -2.22508,-5.03196 -4.07795,-10.29827 -5.5417,-15.80527 -0.33424,-1.2575 -0.68218,-2.52169 -0.99774,-3.79418 -0.31556,-1.27248 -0.59875,-2.55326 -0.8035,-3.84395 -0.20475,-1.29069 -0.33107,-2.59128 -0.33288,-3.90339 -0.002,-1.31211 0.12087,-2.63573 0.41412,-3.97248 0.325,-1.4855 0.89794,-2.76525 1.65939,-3.80737 0.76145,-1.04213 1.71142,-1.84663 2.79048,-2.38163 1.07907,-0.535 2.28722,-0.8005 3.56505,-0.76462 1.27783,0.0359 2.62533,0.37312 3.98308,1.04362 2.75825,1.36325 5.51244,2.735 8.26414,4.11197 2.7517,1.37697 5.50092,2.75916 8.24923,4.14328 2.74832,1.38413 5.49572,2.77019 8.2438,4.15491 2.74808,1.38472 5.49683,2.76809 8.24783,4.14684 1.176,0.59 2.34481,1.1995 3.51283,1.81173 1.16801,0.61224 2.33523,1.22721 3.50804,1.82815 1.17282,0.60093 2.35122,1.18784 3.54161,1.74395 1.19039,0.55611 2.39277,1.08142 3.61352,1.55917 3.09025,1.20875 6.00531,2.64588 8.77886,4.26894 2.77355,1.62306 5.40558,3.43206 7.92976,5.38456 2.52419,1.9525 4.94054,4.0485 7.28271,6.24556 2.34217,2.19707 4.61017,4.49519 6.83767,6.85194 0.15925,0.16825 0.30787,0.34644 0.44977,0.53097 0.14189,0.18453 0.27704,0.37541 0.40935,0.56903 0.13232,0.19363 0.26179,0.39 0.3923,0.58553 0.13052,0.19553 0.26208,0.39022 0.39858,0.58047 l 0.24375,-0.0857 0.24375,-0.0858 0.24375,-0.0858 0.24375,-0.0857 c 0.20175,-1.18725 0.41025,-2.37362 0.61975,-3.55992 0.2095,-1.1863 0.42,-2.37252 0.62575,-3.55945 0.20575,-1.18694 0.40675,-2.3746 0.59725,-3.56377 0.1905,-1.18917 0.3705,-2.37986 0.53425,-3.57286 0.10225,-0.7435 0.17331,-1.49106 0.22725,-2.24091 0.0539,-0.74984 0.0908,-1.50196 0.1245,-2.25459 0.0337,-0.75262 0.0644,-1.50575 0.10612,-2.25759 0.0417,-0.75185 0.0944,-1.50241 0.17213,-2.24991 0.153,-1.47475 0.162,-2.90944 0.0522,-4.31575 -0.10976,-1.40631 -0.33829,-2.78425 -0.66036,-4.1455 -0.32206,-1.36125 -0.73765,-2.70581 -1.22154,-4.04537 -0.48389,-1.33957 -1.03608,-2.67413 -1.63133,-4.01538 -2.46575,-5.55675 -5.2715,-10.84619 -8.39094,-15.88164 -3.11944,-5.03545 -6.55256,-9.81692 -10.27306,-14.35773 -3.7205,-4.54082 -7.72838,-8.84097 -11.99731,-12.9138 -4.26894,-4.07283 -8.79894,-7.91833 -13.56369,-11.54983 -2.1575,-1.64475 -4.42294,-3.14994 -6.75872,-4.56319 -2.33578,-1.41325 -4.74191,-2.73456 -7.18078,-4.01156 -2.43888,-1.277 -4.9105,-2.50969 -7.37728,-3.74569 -2.46678,-1.236 -4.92872,-2.47531 -7.34822,-3.76556 -1.40675,-0.75 -2.82688,-1.47531 -4.25542,-2.18508 -1.42855,-0.70976 -2.86552,-1.40398 -4.30596,-2.09179 -1.44043,-0.68782 -2.88434,-1.36922 -4.32676,-2.05336 -1.44242,-0.68414 -2.88336,-1.37102 -4.31786,-2.06977 -2.0115,-0.98 -3.96263,-2.04144 -5.84803,-3.18939 -1.88541,-1.14795 -3.7051,-2.38242 -5.45372,-3.70848 -1.74863,-1.32607 -3.42619,-2.74372 -5.02734,-4.25805 -1.60116,-1.51433 -3.12591,-3.12533 -4.56891,-4.83808 -1.71325,-2.03375 -3.39206,-4.09175 -5.01952,-6.18536 -1.62745,-2.09361 -3.20354,-4.22283 -4.71136,-6.39901 -1.50781,-2.17619 -2.94734,-4.39935 -4.30167,-6.68083 -1.35433,-2.28149 -2.62345,-4.6213 -3.79045,-7.0308 -1.04675,-2.161 -1.84219,-4.31762 -2.38769,-6.47583 -0.5455,-2.1582 -0.84106,-4.31798 -0.88806,-6.48529 -0.047,-2.16732 0.15456,-4.34216 0.60331,-6.53049 0.44875,-2.18833 1.14469,-4.39014 2.08644,-6.61139 0.83975,-1.98 1.74769,-3.90656 2.73705,-5.77281 0.98936,-1.86625 2.06014,-3.67219 3.22557,-5.41094 1.16544,-1.73875 2.42554,-3.41031 3.79352,-5.00781 1.36798,-1.5975 2.84386,-3.12094 4.44086,-4.56344 0.29,-0.2625 0.59531,-0.52912 0.91281,-0.78589 0.3175,-0.25677 0.64719,-0.50367 0.98594,-0.72673 0.33875,-0.22307 0.68656,-0.42229 1.04031,-0.58368 0.35375,-0.16139 0.71344,-0.28495 1.07594,-0.3567 0.33225,-0.0655 0.69556,-0.0856 1.06997,-0.0657 0.3744,0.0199 0.7599,0.0797 1.13653,0.17405 0.37662,0.0943 0.74437,0.22309 1.08328,0.38085 0.33891,0.15777 0.64897,0.34452 0.91022,0.55477 0.12925,0.1045 0.2025,0.32044 0.2303,0.60159 0.0278,0.28116 0.0101,0.62754 -0.0424,0.99291 -0.0526,0.36538 -0.14003,0.74975 -0.25185,1.10691 -0.11183,0.35715 -0.24802,0.68709 -0.39802,0.94359 -1.1185,1.907 -2.24463,3.81094 -3.32291,5.73452 -1.07828,1.92357 -2.10872,3.86679 -3.03584,5.85236 -0.92713,1.98556 -1.75094,4.01346 -2.41597,6.10642 -0.66503,2.09295 -1.17128,4.25095 -1.46328,6.4967 -0.16975,1.305 -0.326,2.61281 -0.41583,3.91539 -0.0898,1.30258 -0.11323,2.59992 -0.0173,3.88399 0.0959,1.28406 0.31122,2.55484 0.69877,3.80429 0.38755,1.24946 0.94736,2.47758 1.73236,3.67633 1.00175,1.5305 1.98437,3.07431 2.96111,4.62214 0.97673,1.54783 1.94758,3.09967 2.92576,4.64624 0.97819,1.54656 1.96372,3.08784 2.96983,4.61454 1.00611,1.52671 2.0328,3.03883 3.0933,4.52708 0.81125,1.1385 1.69619,2.20731 2.64567,3.21048 0.94949,1.00318 1.96352,1.94071 3.03295,2.81665 1.06944,0.87593 2.19429,1.69028 3.3654,2.44707 1.1711,0.7568 2.38848,1.45605 3.64298,2.1018 0.97425,0.50149 1.89369,0.79412 2.74463,0.88671 0.85094,0.0926 1.63338,-0.0148 2.33362,-0.31347 0.70025,-0.29862 1.31832,-0.78843 1.8405,-1.46059 0.52219,-0.67215 0.9485,-1.52665 1.26525,-2.55465 0.59975,-1.9445 1.12656,-3.88906 1.56909,-5.84139 0.44253,-1.95233 0.80078,-3.91242 1.06341,-5.88798 0.26262,-1.97557 0.42962,-3.9666 0.48966,-5.9808 0.06,-2.0142 0.0131,-4.05158 -0.15216,-6.11983 -0.1795,-2.2455 -0.28525,-4.497 -0.34302,-6.75236 -0.0578,-2.25536 -0.0675,-4.51458 -0.0551,-6.77551 0.0124,-2.26094 0.0471,-4.5236 0.0782,-6.78583 0.0311,-2.26224 0.0587,-4.52405 0.0569,-6.7833 -0.003,-3.2215 -0.029,-6.444 -0.0579,-9.66666 -0.0289,-3.22265 -0.061,-6.44546 -0.077,-9.66759 -0.0159,-3.22212 -0.0157,-6.44356 0.02,-9.663469 C 203.15881,96.414375 203.23,93.196 203.356,89.98 c 0.201,-5.13675 0.871,-10.075437 1.99148,-14.818875 1.12049,-4.743437 2.69146,-9.291625 4.69439,-13.647375 2.00294,-4.35575 4.43785,-8.519062 7.28621,-12.49275 2.84836,-3.973687 6.11017,-7.75775 9.76692,-11.355 0.358,-0.35175 0.73025,-0.679187 1.11672,-0.949062 0.38647,-0.269875 0.78715,-0.482188 1.20203,-0.603688 0.41487,-0.1215 0.84394,-0.152187 1.28716,-0.05881 0.44321,0.09338 0.90059,0.310812 1.37209,0.685562 0.4675,0.3715 0.77625,0.765875 0.96236,1.175984 0.18611,0.41011 0.24958,0.835954 0.22651,1.270391 -0.0231,0.434438 -0.13265,0.877469 -0.29267,1.321953 -0.16001,0.444485 -0.37045,0.890422 -0.5952,1.330672 -0.0317,0.0625 -0.0653,0.124688 -0.10066,0.186109 -0.0353,0.06142 -0.0725,0.122079 -0.11134,0.181516 -0.0389,0.05944 -0.0795,0.117656 -0.12184,0.174203 -0.0423,0.05655 -0.0864,0.111422 -0.13216,0.164172 -2.32825,2.67475 -4.19725,5.52675 -5.74255,8.504438 -1.54529,2.977687 -2.76689,6.081062 -3.80033,9.258562 -1.03343,3.1775 -1.87871,6.429125 -2.67139,9.703313 C 218.90106,73.2855 218.161,76.58225 217.338,79.85 c -0.69575,2.76225 -1.09888,5.521313 -1.30347,8.278516 -0.20459,2.757203 -0.21066,5.512547 -0.11228,8.267359 0.0984,2.754813 0.30119,5.509095 0.51434,8.264175 0.21316,2.75508 0.43666,5.51095 0.57641,8.26895 0.0775,1.5265 0.1575,3.05319 0.23602,4.58006 0.0785,1.52688 0.15554,3.05394 0.2271,4.58119 0.0716,1.52725 0.13766,3.05469 0.1943,4.58231 0.0566,1.52763 0.10383,3.05544 0.13758,4.58344 0.0768,3.4575 0.14794,6.91513 0.21447,10.37286 0.0665,3.45773 0.1284,6.91558 0.18653,10.37352 0.0581,3.45793 0.1125,6.91596 0.16403,10.37407 0.0515,3.45811 0.10022,6.9163 0.14697,10.37455 0.0202,1.518 0.19569,2.98244 0.49483,4.40277 0.29914,1.42032 0.72198,2.79654 1.23704,4.13811 0.51507,1.34156 1.12235,2.64846 1.79036,3.93017 0.66802,1.2817 1.39677,2.5382 2.15477,3.77895 0.23675,0.38725 0.54262,0.73669 0.89437,1.05897 0.35175,0.32228 0.74938,0.61741 1.16963,0.89603 0.42025,0.27863 0.86312,0.54075 1.30537,0.79703 0.44225,0.25628 0.88388,0.50672 1.30163,0.76197 1.303,0.7955 2.61431,1.57775 3.92859,2.35516 1.31428,0.7774 2.63153,1.54997 3.94641,2.32609 1.31487,0.77613 2.62737,1.55581 3.93216,2.34747 1.30478,0.79166 2.60184,1.59528 3.88584,2.41928 0.50125,0.3215 0.97481,0.55175 1.42522,0.69209 0.4504,0.14035 0.87765,0.19079 1.28628,0.15266 0.40862,-0.0381 0.79862,-0.16481 1.17453,-0.37872 0.37591,-0.2139 0.73772,-0.51503 1.08997,-0.90203 0.934,-1.02625 1.85737,-2.06081 2.74334,-3.1208 0.88597,-1.05998 1.73453,-2.14539 2.51891,-3.27332 0.78437,-1.12794 1.50456,-2.29841 2.13378,-3.52852 0.62922,-1.23011 1.16747,-2.51986 1.58797,-3.88636 1.84575,-6.00575 3.69062,-12.01169 5.536,-18.01742 1.84537,-6.00574 3.69125,-12.01127 5.539,-18.0162 1.84775,-6.00494 3.69737,-12.00929 5.55025,-18.01265 1.85287,-6.00335 3.709,-12.00573 5.56975,-18.00673 1.03675,-3.34375 2.12737,-6.665 3.30059,-9.95055 1.17322,-3.28554 2.42903,-6.535387 3.79616,-9.736325 1.36712,-3.200937 2.84556,-6.352969 4.46403,-9.442891 1.61847,-3.089921 3.37697,-6.117734 5.30422,-9.070234 0.245,-0.37575 0.47956,-0.806 0.7303,-1.223516 0.25073,-0.417515 0.51764,-0.822296 0.82732,-1.147109 0.30969,-0.324812 0.66216,-0.569656 1.08402,-0.667297 0.42186,-0.09764 0.91311,-0.04808 1.50036,0.215922 0.60775,0.273 1.05237,0.624313 1.36367,1.031672 0.3113,0.407359 0.48927,0.870766 0.5637,1.367953 0.0744,0.497188 0.0453,1.028156 -0.0575,1.570641 -0.10283,0.542484 -0.27939,1.096484 -0.49989,1.639734 -1.61525,3.9755 -3.119,7.987 -4.52977,12.02775 -1.41076,4.04075 -2.72854,8.11075 -3.97186,12.20325 -1.24331,4.0925 -2.41215,8.2075 -3.52504,12.33825 -1.11289,4.13075 -2.16983,8.27725 -3.18933,12.43275 -0.7135,2.90925 -1.37406,5.83156 -2.00019,8.76233 -0.62612,2.93076 -1.21781,5.86998 -1.79356,8.81305 -0.57575,2.94306 -1.13556,5.88996 -1.69794,8.8361 -0.56237,2.94615 -1.12731,5.89152 -1.71331,8.83152 -0.4535,2.275 -0.936,4.54688 -1.42169,6.81859 -0.48569,2.27172 -0.97456,4.54329 -1.44081,6.81766 -0.46625,2.27438 -0.90988,4.55156 -1.30506,6.83453 -0.39519,2.28297 -0.74194,4.57172 -1.01444,6.86922 -0.25325,2.139 -0.42856,4.28763 -0.55177,6.44245 -0.1232,2.15483 -0.19429,4.31586 -0.23911,6.47968 -0.0448,2.16381 -0.0633,4.3304 -0.0814,6.49635 -0.0181,2.16596 -0.0357,4.33127 -0.0787,6.49252 -0.005,0.27575 0.0262,0.56769 0.088,0.86353 0.0618,0.29585 0.154,0.5956 0.27025,0.88697 0.11625,0.29138 0.25656,0.57438 0.41462,0.83672 0.15807,0.26234 0.33388,0.50403 0.52113,0.71278 3.42625,3.8175 6.45187,7.84269 9.16553,12.0297 2.71366,4.18702 5.11534,8.53586 7.29372,13.00068 2.17837,4.46481 4.13344,9.04559 5.95384,13.69648 1.82041,4.65089 3.50616,9.37189 5.14591,14.11714 0.0457,0.133 0.0938,0.26513 0.14336,0.39678 0.0495,0.13166 0.10058,0.26285 0.15226,0.39397 0.0517,0.13113 0.10404,0.26219 0.15621,0.39359 0.0522,0.13141 0.10417,0.26316 0.15517,0.39566 0.0427,-0.0125 0.0909,-0.0217 0.13987,-0.0302 0.049,-0.008 0.0989,-0.0162 0.14513,-0.0255 0.0462,-0.009 0.0889,-0.0204 0.12337,-0.0357 0.0345,-0.0152 0.0609,-0.0346 0.0746,-0.0606 1.14675,-2.19825 2.31119,-4.38862 3.44158,-6.59314 1.13039,-2.20452 2.22673,-4.42317 3.23729,-6.67798 1.01057,-2.25482 1.93535,-4.54579 2.72261,-6.89493 0.78727,-2.34914 1.43702,-4.75645 1.89752,-7.24395 0.0528,-0.28675 0.17462,-0.56075 0.34037,-0.82667 0.16575,-0.26592 0.37538,-0.52377 0.60363,-0.7782 0.22825,-0.25444 0.47512,-0.50547 0.71537,-0.75777 0.24025,-0.2523 0.47388,-0.50586 0.67563,-0.76536 0.2235,0.2255 0.48225,0.44294 0.74841,0.65864 0.26615,0.2157 0.53971,0.42967 0.79284,0.64824 0.25312,0.21856 0.48581,0.44171 0.67022,0.67579 0.1844,0.23408 0.32053,0.47908 0.38053,0.74133 0.33518,1.47476 0.56827,2.96538 0.69975,4.46154 0.13148,1.49615 0.16135,2.99784 0.0901,4.49471 -0.0712,1.49687 -0.24359,2.98893 -0.51656,4.46583 -0.27298,1.47691 -0.64657,2.93866 -1.1203,4.37492 -0.79325,2.42425 -1.62581,4.83556 -2.48238,7.23905 -0.85656,2.40348 -1.73712,4.79914 -2.62637,7.19208 -0.88925,2.39293 -1.78719,4.78315 -2.6785,7.17576 -0.89131,2.39261 -1.776,4.78761 -2.63875,7.19011 -0.155,0.43175 -0.30238,0.87244 -0.43683,1.319 -0.13445,0.44656 -0.25598,0.899 -0.3593,1.35425 -0.10331,0.45525 -0.1884,0.91331 -0.24998,1.37113 -0.0616,0.45781 -0.0996,0.91537 -0.10889,1.36962 -0.029,1.41075 -0.0435,2.822 -0.0479,4.23356 -0.004,1.41157 0.001,2.82344 0.0123,4.23544 0.0112,1.412 0.028,2.82413 0.0459,4.23619 0.0179,1.41206 0.037,2.82406 0.0527,4.23581 0.004,0.349 0.017,0.69788 0.0361,1.05252 0.0191,0.35464 0.0443,0.71504 0.0727,1.08711 0.0284,0.37206 0.0599,0.75578 0.0918,1.15704 0.0318,0.40127 0.064,0.82008 0.0935,1.26233 0.51,-0.045 1.00625,-0.096 1.49225,-0.14761 0.486,-0.0516 0.96175,-0.10383 1.43075,-0.15126 0.469,-0.0474 0.93125,-0.0901 1.39025,-0.12258 0.459,-0.0325 0.91475,-0.0548 1.37075,-0.0616 3.506,-0.05 7.01225,-0.11612 10.51845,-0.18212 3.50621,-0.066 7.01236,-0.13188 10.51817,-0.18138 3.50582,-0.0495 7.01129,-0.0826 10.51611,-0.0831 3.50483,-5e-4 7.00902,0.0316 10.51227,0.11262 1.074,0.0245 2.02369,-0.0484 2.88244,-0.21877 0.85875,-0.17032 1.62656,-0.43804 2.33681,-0.8031 0.71025,-0.36507 1.36294,-0.82747 1.99144,-1.38718 0.6285,-0.5597 1.23281,-1.2167 1.84631,-1.97095 1.525,-1.87375 3.01606,-3.76087 4.42445,-5.68998 1.40839,-1.92911 2.73411,-3.90021 3.92842,-5.94189 1.19432,-2.04169 2.25722,-4.15397 3.13999,-6.36546 0.88276,-2.21148 1.58539,-4.52217 2.05914,-6.96067 0.0897,-0.4635 0.24919,-0.8385 0.46317,-1.13794 0.21399,-0.29943 0.48252,-0.52331 0.79045,-0.68456 0.30794,-0.16125 0.65529,-0.25987 1.0269,-0.30881 0.3716,-0.0489 0.76748,-0.0482 1.17248,-0.0107 0.817,0.0755 1.633,0.16656 2.44858,0.26322 0.81558,0.0967 1.63073,0.19891 2.44604,0.29678 0.81532,0.0979 1.63079,0.19138 2.44699,0.27053 0.8162,0.0792 1.63314,0.14397 2.45139,0.18447 0.3925,0.019 0.81625,0.0309 1.24747,0.0238 0.43122,-0.007 0.8699,-0.033 1.29228,-0.0896 0.42237,-0.0566 0.82844,-0.14394 1.19441,-0.27372 0.36596,-0.12978 0.69184,-0.30203 0.95384,-0.52853 3.2195,-2.7845 6.44037,-5.56831 9.65656,-8.35777 3.21619,-2.78945 6.42769,-5.58454 9.62844,-8.3916 3.20075,-2.80707 6.39075,-5.6261 9.56394,-8.46343 3.17318,-2.83732 6.32956,-5.69295 9.46306,-8.5732 1.62025,-1.48975 3.19587,-3.02825 4.74761,-4.60258 1.55173,-1.57433 3.07958,-3.18448 4.60426,-4.81754 1.52469,-1.63307 3.04622,-3.28904 4.58533,-4.95499 1.53911,-1.66595 3.0958,-3.34189 4.6908,-5.01489 -2.49925,-1.154 -4.97094,-2.28644 -7.42002,-3.40672 -2.44907,-1.12028 -4.87554,-2.2284 -7.28436,-3.33378 -2.40881,-1.10537 -4.79996,-2.208 -7.17842,-3.31728 -2.37845,-1.10928 -4.7442,-2.22522 -7.1022,-3.35722 -4.69675,-2.25425 -9.39763,-4.50094 -14.09708,-6.75077 -4.69945,-2.24982 -9.39748,-4.50279 -14.08855,-6.7696 -4.69106,-2.26682 -9.37515,-4.54747 -14.04673,-6.85268 -4.67158,-2.3052 -9.33064,-4.63495 -13.97164,-6.99995 -2.82975,-1.4425 -5.49088,-3.09725 -8.01469,-4.92152 -2.52381,-1.82426 -4.91031,-3.81804 -7.19081,-5.9386 -2.2805,-2.12057 -4.455,-4.36791 -6.55481,-6.6993 -2.09982,-2.33139 -4.12494,-4.74683 -6.10669,-7.20358 -1.461,-1.8115 -2.94294,-3.60612 -4.43794,-5.39025 -1.495,-1.78412 -3.00306,-3.55775 -4.51631,-5.32725 -1.51325,-1.7695 -3.03169,-3.53487 -4.54744,-5.3025 -1.51575,-1.76762 -3.02881,-3.5375 -4.53131,-5.316 -0.2265,-0.2685 -0.47013,-0.53587 -0.7138,-0.80564 -0.24367,-0.26977 -0.48739,-0.54192 -0.71408,-0.81998 -0.22668,-0.27807 -0.43634,-0.56204 -0.61189,-0.85543 -0.17554,-0.29339 -0.31698,-0.5962 -0.40723,-0.91195 -0.096,-0.335 -0.1725,-0.70731 -0.22203,-1.09341 -0.0495,-0.38609 -0.0721,-0.78596 -0.0602,-1.17609 0.0119,-0.39012 0.0582,-0.7705 0.14641,-1.11759 0.0882,-0.3471 0.21834,-0.66091 0.39784,-0.91791 0.27425,-0.392 0.59244,-0.63987 0.9362,-0.77416 0.34377,-0.13428 0.71311,-0.15496 1.08967,-0.0926 0.37657,0.0624 0.76035,0.20781 1.13299,0.40578 0.37264,0.19797 0.73414,0.44847 1.06614,0.72097 1.90675,1.5655 3.84187,3.10244 5.78205,4.63456 1.94017,1.53213 3.88539,3.05944 5.81232,4.60569 1.92694,1.54625 3.8356,3.11144 5.70265,4.71931 1.86704,1.60788 3.69248,3.25844 5.45298,4.97544 3.76,3.666 7.63506,7.1535 11.62631,10.46775 3.99125,3.31425 8.09869,6.45525 12.32344,9.42825 4.22475,2.973 8.56681,5.778 13.02731,8.42025 4.4605,2.64225 9.03944,5.12175 13.73794,7.44375 2.19825,1.08675 4.41019,2.00881 6.64359,2.76313 2.23341,0.75431 4.48828,1.34087 6.77241,1.75662 2.28412,0.41575 4.5975,0.66069 6.94791,0.73175 2.3504,0.0711 4.73784,-0.0317 7.17009,-0.3115 1.862,-0.214 3.42875,-0.65637 4.74791,-1.30786 1.31915,-0.65148 2.39071,-1.51208 3.26234,-2.56251 0.87162,-1.05044 1.54331,-2.29072 2.06272,-3.70158 0.5194,-1.41086 0.88653,-2.9923 1.14903,-4.72505 0.41425,-2.73675 0.81262,-5.476 1.2048,-8.21623 0.39217,-2.74024 0.77814,-5.48146 1.16757,-8.22214 0.38944,-2.74069 0.78235,-5.48085 1.1884,-8.21896 0.40604,-2.73811 0.82523,-5.47417 1.26723,-8.20667 0.47975,-2.9695 0.82844,-5.93962 1.07069,-8.91114 0.24225,-2.97152 0.37806,-5.94442 0.43206,-8.91948 0.054,-2.97507 0.0262,-5.95229 -0.0588,-8.93243 -0.085,-2.98014 -0.22719,-5.9632 -0.40194,-8.94995 -0.3055,-5.21 -0.92838,-10.33175 -1.82294,-15.37856 C 440.1935,99.699625 439.02725,94.72775 437.635,89.8175 436.24275,84.90725 434.6245,80.058625 432.82594,75.258313 431.02737,70.458 429.0485,65.706 426.935,60.989 c -0.01,-0.021 -0.021,-0.04237 -0.0323,-0.064 -0.0113,-0.02163 -0.0227,-0.0435 -0.0328,-0.0655 -0.0101,-0.022 -0.0188,-0.04412 -0.0247,-0.06625 -0.006,-0.02213 -0.009,-0.04425 -0.008,-0.06625 0.0122,-0.4155 0.0251,-0.831 0.0383,-1.246516 0.0132,-0.415515 0.0268,-0.831046 0.0406,-1.246609 0.0138,-0.415562 0.0279,-0.831156 0.0419,-1.246797 0.0141,-0.41564 0.0282,-0.831328 0.0422,-1.247078 0.35925,0.1705 0.73887,0.320563 1.1228,0.466328 0.38392,0.145766 0.77214,0.287235 1.14857,0.440547 0.37644,0.153313 0.7411,0.318469 1.0779,0.511609 0.33679,0.193141 0.64573,0.414266 0.91073,0.679516 2.0425,2.04375 3.85456,4.2215 5.48511,6.504547 1.63055,2.283047 3.07958,4.671391 4.39601,7.136328 1.31644,2.464938 2.50029,5.006469 3.60046,7.595891 1.10017,2.589422 2.11667,5.226734 3.09842,7.883234 1.3165,3.5635 2.43737,7.162875 3.38492,10.793141 0.94755,3.630269 1.72177,7.291419 2.34495,10.978489 0.62319,3.68706 1.09535,7.40003 1.43877,11.13392 0.34342,3.73389 0.55811,7.4887 0.66636,11.25945 0.0757,2.63125 0.16262,5.26644 0.23784,7.90272 0.0752,2.63628 0.13878,5.27366 0.16791,7.90928 0.0291,2.63563 0.0238,5.2695 -0.0387,7.89878 -0.0625,2.62928 -0.18228,5.25397 -0.38203,7.87122 -0.21,2.75675 -0.52525,5.505 -0.89967,8.24873 -0.37442,2.74374 -0.80802,5.48296 -1.25471,8.22165 -0.44668,2.73868 -0.90646,5.47684 -1.33326,8.21845 -0.4268,2.74161 -0.82061,5.48667 -1.13536,8.23917 -0.12275,1.0725 -0.16013,2.15575 -0.14016,3.24552 0.02,1.08976 0.0973,2.18604 0.20391,3.28461 0.10662,1.09856 0.24256,2.1994 0.37978,3.29829 0.13722,1.09889 0.27572,2.19583 0.38747,3.28658 0.019,0.185 0.0924,0.37531 0.20355,0.56402 0.11111,0.1887 0.25989,0.37579 0.42957,0.55436 0.16969,0.17856 0.36029,0.34859 0.55502,0.50317 0.19473,0.15458 0.39361,0.2937 0.57986,0.41045 0.71625,0.448 1.43844,0.88638 2.164,1.31922 0.72556,0.43284 1.4545,0.86016 2.18425,1.28603 0.72975,0.42588 1.46031,0.85031 2.18912,1.27741 0.72882,0.42709 1.45588,0.85684 2.17863,1.29334 0.33825,0.2045 0.64637,0.33706 0.93702,0.40472 0.29064,0.0677 0.56379,0.0704 0.8321,0.0153 0.26832,-0.0551 0.53179,-0.16812 0.80305,-0.33197 0.27127,-0.16384 0.55033,-0.37853 0.84983,-0.63703 1.8365,-1.5825 3.39112,-3.3125 4.73703,-5.1543 1.34591,-1.84179 2.48309,-3.79539 3.48472,-5.82507 1.00162,-2.02969 1.86769,-4.13547 2.67134,-6.28165 0.80366,-2.14617 1.54491,-4.33273 2.29691,-6.52398 0.84575,-2.46375 1.55169,-4.95031 2.15978,-7.4533 0.60809,-2.50298 1.11834,-5.02239 1.57272,-7.55182 0.45437,-2.52944 0.85287,-5.06891 1.23747,-7.61202 0.38459,-2.54311 0.75528,-5.08986 1.15403,-7.63386 0.519,-3.31225 1.04969,-6.62256 1.58712,-9.93177 0.53744,-3.3092 1.08163,-6.61729 1.62763,-9.9251 0.546,-3.30782 1.09381,-6.61535 1.6385,-9.92343 0.54469,-3.30807 1.08625,-6.6167 1.61975,-9.9267 0.4175,-2.58875 0.83037,-5.17831 1.24041,-7.76837 0.41003,-2.59007 0.81721,-5.18063 1.22334,-7.77138 0.40612,-2.59075 0.81119,-5.18169 1.21697,-7.7725 0.40578,-2.590812 0.81228,-5.1815 1.22128,-7.77175 0.022,-0.13875 0.0417,-0.280375 0.0631,-0.422203 0.0213,-0.141828 0.0442,-0.283859 0.0725,-0.423422 0.0283,-0.139562 0.062,-0.276656 0.10499,-0.408609 0.0429,-0.131953 0.0951,-0.258766 0.16039,-0.377766 0.10575,-0.19275 0.21325,-0.39775 0.32597,-0.601922 0.11272,-0.204172 0.23065,-0.407515 0.35728,-0.596953 0.12662,-0.189437 0.26194,-0.364969 0.40941,-0.513516 0.14746,-0.148546 0.30709,-0.270109 0.48234,-0.351609 0.096,-0.0445 0.24025,-0.02688 0.40861,0.03441 0.16836,0.06128 0.36083,0.166219 0.55326,0.296344 0.19244,0.130125 0.38485,0.285438 0.55308,0.447469 0.16824,0.162031 0.3123,0.330781 0.40805,0.487781 0.17825,0.29325 0.35331,0.5955 0.51923,0.904813 0.16593,0.309312 0.32271,0.625687 0.46439,0.947187 0.14169,0.3215 0.26829,0.648125 0.37383,0.977938 0.10555,0.329812 0.19005,0.662812 0.24755,0.997062 0.602,3.48 1.04069,6.9655 1.33748,10.45455 0.2968,3.48904 0.45171,6.98164 0.48614,10.47583 0.0344,3.49418 -0.0516,6.98996 -0.23667,10.48539 -0.18508,3.49542 -0.4692,6.99048 -0.83095,10.48323 -0.37475,3.618 -0.76306,7.23513 -1.167,10.85069 -0.40394,3.61556 -0.8235,7.22956 -1.26075,10.84131 -0.43725,3.61175 -0.89219,7.22125 -1.36688,10.82781 -0.47468,3.60657 -0.96912,7.21019 -1.48537,10.81019 -0.34175,2.3865 -0.72038,4.76844 -1.12808,7.14627 -0.4077,2.37782 -0.84448,4.75154 -1.30255,7.12161 -0.45806,2.37006 -0.9374,4.73646 -1.43023,7.09967 -0.49283,2.3632 -0.99914,4.7232 -1.51114,7.08045 -0.39175,1.803 -0.79175,3.60763 -1.20895,5.40916 -0.41721,1.80153 -0.85161,3.59997 -1.31218,5.39059 -0.46056,1.79063 -0.94728,3.57344 -1.4691,5.34372 -0.52183,1.77028 -1.07877,3.52803 -1.67977,5.26853 -0.8265,2.3955 -1.84875,4.67438 -3.0225,6.86091 -1.17375,2.18653 -2.499,4.28072 -3.9315,6.30684 -1.4325,2.02613 -2.97225,3.98419 -4.575,5.89847 -1.60275,1.91428 -3.2685,3.78478 -4.953,5.63578 -2.106,2.31475 -4.21413,4.62775 -6.3235,6.93966 -2.10938,2.3119 -4.22,4.62272 -6.331,6.93309 -2.111,2.31038 -4.22238,4.62031 -6.33325,6.93047 -2.11088,2.31016 -4.22125,4.62053 -6.33025,6.93178 -0.20475,0.22475 -0.40694,0.45138 -0.60267,0.68641 -0.19574,0.23503 -0.38502,0.47847 -0.56396,0.73684 -0.17893,0.25838 -0.34753,0.53169 -0.50189,0.82647 -0.15436,0.29478 -0.29448,0.61103 -0.41648,0.95528 0.211,-0.117 0.42044,-0.23781 0.62961,-0.35942 0.20917,-0.12161 0.41808,-0.24402 0.62801,-0.3642 0.20994,-0.12019 0.42091,-0.23816 0.63421,-0.3509 0.21329,-0.11273 0.42892,-0.22023 0.64817,-0.31948 1.875,-0.85375 3.75062,-1.70644 5.62687,-2.55798 1.87625,-0.85155 3.75313,-1.70196 5.63063,-2.55114 1.8775,-0.84919 3.75562,-1.69716 5.63437,-2.54383 1.87875,-0.84667 3.75813,-1.69205 5.63813,-2.53605 0.19125,-0.0858 0.38656,-0.16381 0.58477,-0.23564 0.1982,-0.0718 0.39929,-0.13742 0.6021,-0.19823 0.20282,-0.0608 0.40735,-0.11685 0.61243,-0.16955 0.20507,-0.0527 0.4107,-0.10208 0.6157,-0.14958 1.002,-0.23025 1.81812,-0.36862 2.49397,-0.38352 0.67584,-0.0149 1.2114,0.0937 1.65228,0.3574 0.44087,0.26368 0.78706,0.68246 1.08416,1.28795 0.29709,0.60548 0.54509,1.39767 0.78959,2.40817 0.3525,1.45075 0.73587,2.90063 1.12056,4.35155 0.38469,1.45092 0.77069,2.90289 1.12844,4.35783 0.35775,1.45493 0.68725,2.91284 0.95894,4.37564 0.27168,1.46279 0.48556,2.93048 0.61206,4.40498 0.2305,2.6975 0.15037,5.33913 -0.16542,7.93505 -0.3158,2.59592 -0.86727,5.14614 -1.57946,7.66083 -0.71218,2.51468 -1.58509,4.99384 -2.54376,7.44764 -0.95867,2.45379 -2.00311,4.88223 -3.05836,7.29548 -2.4725,5.655 -5.39306,10.79894 -8.75383,15.43788 -3.36076,4.63893 -7.16173,8.77287 -11.39505,12.40787 -4.23331,3.635 -8.89896,6.77106 -13.9891,9.41425 -5.09015,2.64319 -10.60477,4.7935 -16.53602,6.457 -0.96325,0.27025 -1.77506,0.73019 -2.41617,1.31856 -0.64111,0.58838 -1.11152,1.30519 -1.39196,2.08919 -0.28043,0.784 -0.3709,1.63519 -0.25214,2.49231 0.11877,0.85713 0.44677,1.72019 1.00327,2.52794 2.39125,3.47275 4.84625,6.89281 7.35867,10.26666 2.51242,3.37384 5.08227,6.70147 7.7032,9.98934 2.62094,3.28788 5.29297,6.536 8.00977,9.75084 2.7168,3.21485 5.47836,6.39641 8.27836,9.55116 4.28,4.8225 8.79762,9.24344 13.55308,13.26948 4.75545,4.02605 9.74873,7.65721 14.98004,10.90015 5.23132,3.24293 10.70066,6.09765 16.40824,8.57082 5.70758,2.47318 11.65339,4.5648 17.83764,6.28155 1.324,0.3675 2.63362,0.81213 3.94312,1.26023 1.3095,0.44811 2.61888,0.89971 3.94238,1.28115 1.3235,0.38143 2.66112,0.69271 4.02712,0.8602 1.366,0.16748 2.76038,0.19117 4.19738,-0.003 3.01575,-0.40675 6.02525,-0.57481 9.03083,-0.59495 3.00558,-0.0201 6.00723,0.10764 9.00729,0.29258 3.00007,0.18493 5.99854,0.42703 8.99774,0.63551 2.9992,0.20849 5.99914,0.38336 9.00214,0.43386 2.516,0.0425 5.03294,0.0614 7.55027,0.0595 2.51732,-0.002 5.03504,-0.0244 7.5526,-0.0648 2.51757,-0.0404 5.03497,-0.0986 7.55168,-0.17166 2.5167,-0.0731 5.0327,-0.16109 7.54745,-0.26109 5.66675,-0.2255 11.33437,-0.4765 17.00236,-0.70305 5.66798,-0.22654 11.33633,-0.42864 17.00451,-0.55632 5.66819,-0.12769 11.33622,-0.18097 17.00358,-0.1099 5.66736,0.0711 11.33405,0.26652 16.99955,0.63627 4.4,0.28725 8.77012,0.73606 13.08034,1.41016 4.31022,0.67409 8.56053,1.57347 12.72091,2.76184 4.16037,1.18837 8.23081,2.66575 12.18128,4.49584 3.95047,1.8301 7.78097,4.01291 11.46147,6.61216 0,0 -1.66338,9.44563 -4.47541,24.28727 -2.81203,14.84164 -6.77272,35.07929 -11.36734,56.66336 -4.59463,21.58406 -9.82319,44.51453 -15.17097,64.74179 -5.34778,20.22727 -10.81478,37.75133 -15.88628,48.52258 -6.4535,13.70425 -18.55438,30.7385 -33.07559,48.58123 -14.52122,17.84274 -31.46279,36.49396 -47.59766,53.43214 -16.13487,16.93819 -31.46306,32.16335 -42.75753,43.15396 C 531.07075,821.24394 523.81,828 523.81,828 Z"
     id="path333"
     sodipodi:nodetypes="cssscssscssscssscssscssscssscssscssssssscssscssscssscssscssscssscssscssscssssssscssscssscssscssscssscssscssscssscssssssscssscssscssscssscssscccccssscssscssscssscssscssscssscssscssscssscssscssscssscssscssscssscssssssscssscssscssscssscssscssscssscssscssscssscssscssscssscssscssscssscssscssscssscssscssscssscssscssscssscssscssscssscssscssscssscssscssscssscssscssscssscssscssscssscssscssscssscssscssscssscssscssscssscssscssscssscssscssscssscssscssscssscssscssscssscssscssscssscssscssscssscssscssscssscssscssscssscssscssscssscssscssscssscssscssscssscssscssscssscssscssscssscssscssscssscssscssscssscssscssscssscssscssscssscssscsssc" />
</svg>
