<?xml version="1.0" encoding="UTF-8" standalone="no"?>
<svg
   xmlns:dc="http://purl.org/dc/elements/1.1/"
   xmlns:cc="http://creativecommons.org/ns#"
   xmlns:rdf="http://www.w3.org/1999/02/22-rdf-syntax-ns#"
   xmlns:svg="http://www.w3.org/2000/svg"
   xmlns="http://www.w3.org/2000/svg"
   xmlns:sodipodi="http://sodipodi.sourceforge.net/DTD/sodipodi-0.dtd"
   xmlns:inkscape="http://www.inkscape.org/namespaces/inkscape"
   version="1.1"
   id="Layer_1"
   x="0px"
   y="0px"
   width="1920px"
   height="1080px"
   viewBox="0 0 1920 1080"
   enable-background="new 0 0 1920 1080"
   xml:space="preserve"
   sodipodi:docname="fourier.svg"
   inkscape:version="1.0.2 (e86c870879, 2021-01-15)"><metadata
   id="metadata117"><rdf:RDF><cc:Work
       rdf:about=""><dc:format>image/svg+xml</dc:format><dc:type
         rdf:resource="http://purl.org/dc/dcmitype/StillImage" /></cc:Work></rdf:RDF></metadata><defs
   id="defs115" /><sodipodi:namedview
   pagecolor="#ffffff"
   bordercolor="#666666"
   borderopacity="1"
   objecttolerance="10"
   gridtolerance="10"
   guidetolerance="10"
   inkscape:pageopacity="0"
   inkscape:pageshadow="2"
   inkscape:window-width="2544"
   inkscape:window-height="1396"
   id="namedview113"
   showgrid="false"
   inkscape:zoom="1.1101852"
   inkscape:cx="960"
   inkscape:cy="540"
   inkscape:window-x="5"
   inkscape:window-y="33"
   inkscape:window-maximized="0"
   inkscape:current-layer="g80" />
<g
   id="g80">
	<path
   fill="none"
   stroke="#000000"
   stroke-miterlimit="10"
   d="m 978.141,416.063 c 3.866,-3.625 9.31425,-3.29625 14.33412,-2.04438 5.01988,1.25188 9.61138,3.42688 11.76388,3.49438 7.033,0.221 14.191,-0.10225 20.301,-0.40975 6.11,-0.3075 11.172,-0.59925 14.013,-0.31525 4.833,0.483 12.9282,0.66425 20.661,0.24137 7.7328,-0.42287 15.103,-1.44987 18.486,-3.38337 0,0 -0.725,-0.24175 -1.9334,-0.54388 -1.2084,-0.30212 -2.9001,-0.66462 -4.8336,-0.90612 -1.933,-0.24144 -3.6245,-0.96644 -5.5576,-1.63108 -1.9332,-0.66464 -4.1079,-1.26892 -7.0074,-1.26892 -1.5285,0 -4.5493,0.84575 -7.4295,1.6915 -2.8803,0.84575 -5.62,1.6915 -6.5865,1.6915 -0.967,0 -3.021,-0.9665 -5.7999,-1.81225 -2.7789,-0.84575 -6.2826,-1.57075 -10.1491,-1.08775 -3.866,0.4835 -7.1283,1.805 -9.9073,3.00562 -2.779,1.20063 -5.0747,2.28038 -7.0077,2.28038 l -2.9,1.465 -2.9,1.465 c 3.383,2.9 7.9742,6.0415 13.4112,8.33713 5.437,2.29562 11.7198,3.74537 18.4858,3.26187 6.766,-0.483 10.0282,-0.483 13.3509,-1.38925 3.3226,-0.90625 6.7056,-2.71875 13.7131,-6.82675 7.0085,-4.108 11.6,-7.2495 14.1977,-7.612 2.5978,-0.3625 3.2018,2.054 2.2353,9.062 -0.9665,7.008 1.2082,4.229 3.6246,-0.302 2.4164,-4.531 5.0744,-10.814 5.0744,-10.814 0,0 0.6852,-2.497 1.0279,-6.58488 0.3426,-4.08787 0.3426,-9.76662 -1.0279,-16.13012 -0.9655,-4.482 -4.832,-8.59 -8.9404,-12.06075 -4.1084,-3.47075 -8.4586,-6.30425 -10.3916,-8.23725 0,0 -2.8593,-7.85375 -5.9804,-17.097 -3.1211,-9.24325 -6.5041,-19.876 -7.5516,-25.434 -0.6454,-3.42452 2.3753,-2.82027 6.4636,-0.81626 4.0882,2.004 9.2439,5.40776 12.8684,7.58226 3.625,2.175 10.1497,0.36275 16.3119,-2.35575 6.1621,-2.7185 11.9616,-6.34325 14.1361,-7.79325 2.1745,-1.45 1.3285,-3.8665 -0.7948,-5.93137 -2.1232,-2.06488 -5.5237,-3.77813 -8.4582,-3.82163 -1.77,1.4335 -3.6932,2.78425 -6.1369,3.77663 -2.4436,0.99237 -5.4076,1.62637 -9.2591,1.62637 -5.3165,0 -12.3243,-1.45 -18.0029,-2.9 -5.6786,-1.45 -10.0281,-2.9 -10.0281,-2.9 0.2415,-4.752 -1.248,-11.31675 -1.4287,-17.82125 -0.1808,-6.5045 0.9472,-12.94875 6.4237,-17.45975 8.132,-6.6985 14.472,-10.47575 20.3009,-11.95837 5.8288,-1.48263 11.1466,-0.67063 17.2341,1.80937 2.175,0.8855 7.7733,7.28925 12.8278,13.47163 5.0545,6.18237 9.5652,12.14337 9.5652,12.14337 0,0 -2.417,3.222 -5.2366,6.28288 -2.8196,3.06087 -6.0419,5.96062 -7.6524,5.31612 -1.6105,-0.644 -5.6377,-4.34925 -9.9874,-7.8935 -4.3496,-3.54425 -9.0216,-6.9275 -11.9216,-6.9275 -2.9,0 -8.6995,0.64425 -14.0157,1.77175 -5.3163,1.1275 -10.1493,2.73825 -11.1163,4.67125 -0.967,1.9335 -2.2555,5.8 -2.9801,8.78037 -0.7247,2.98038 -0.8854,5.07463 0.4031,3.46363 1.2885,-1.611 3.2218,-3.222 4.8329,-4.43025 1.6111,-1.20825 2.9001,-2.01375 2.9001,-2.01375 0.4095,1.485 1.3107,3.217 2.5651,4.57775 1.2544,1.36075 2.8619,2.35025 4.6839,2.35025 2.1355,0 4.0687,-0.75725 5.4681,-1.98163 1.3994,-1.22437 2.2649,-2.91587 2.2649,-4.78437 0,-0.7065 -0.1243,-1.387 -0.3543,-2.02638 -0.23,-0.63937 -0.5657,-1.23762 -0.9887,-1.77962 0.2315,-0.02 0.459,-0.0353 0.6827,-0.0455 0.2238,-0.0102 0.4438,-0.0155 0.6603,-0.0155 3.383,0 8.9407,2.89975 13.6527,5.7995 4.712,2.89975 8.5783,5.7995 8.5783,5.7995 0,0 6.6453,2.175 13.2905,5.55825 6.6453,3.38325 13.2905,7.97475 13.2905,12.80775 0,4.833 0.1607,10.672 0.3215,15.30275 0.1607,4.63075 0.3215,8.05325 0.3215,8.05325 0,0 7.7327,0.64425 15.7876,-0.96688 8.0549,-1.61112 16.4319,-5.47762 17.7204,-14.49912 1.2885,-9.0215 -1.9332,-19.9765 -4.5105,-28.67613 -2.5772,-8.69962 -4.51,-15.14387 -0.6435,-15.14387 3.8665,0 9.5058,-5.31525 14.1784,-10.6305 4.6726,-5.31525 8.3786,-10.6305 8.3786,-10.6305 0,0 -1.933,1.611 -6.0414,3.46325 -4.1083,1.85225 -10.3921,3.94575 -19.0936,4.91075 3.866,-1.289 8.377,-7.733 11.9215,-15.1435 3.5445,-7.4105 6.1225,-15.7875 6.1225,-20.9425 0,-5.155 1.2885,-9.0215 -0.3227,-12.888 -1.6113,-3.8665 -6.1223,-7.733 -17.7213,-12.888 7.7325,-3.8665 11.5988,-13.5325 11.2766,-25.13163 -0.3221,-11.59912 -4.8326,-25.13137 -13.8536,-36.73037 -9.0214,-11.59955 -15.4652,-13.5328 -19.6536,-12.56617 -4.1884,0.96664 -6.1214,4.83317 -6.1214,4.83317 0,0 2.256,-6.28175 2.4984,-14.57725 0.2423,-8.2955 -1.5289,-18.60475 -9.5834,-26.65975 -7.839,-7.839493 -15.7338,-10.417993 -21.6688,-11.03662 -5.935,-0.618627 -9.9102,0.72262 -9.9102,0.72262 0,0 0.8067,-4.993 -0.9644,-10.952625 -1.7711,-5.959625 -6.1201,-12.885875 -16.4316,-16.752375 -10.3105,-3.8665 -20.2988,0.64425 -27.1456,4.83275 -6.8469,4.1885 -10.5524,8.05475 -8.2974,2.89925 2.583,-5.904 -0.961,-14.9255 -5.1508,-22.471 -4.1897,-7.5455 -9.0252,-13.615 -9.0252,-13.615 0,0 0.6442,4.51075 -0.3224,10.390875 -0.9666,5.880125 -3.5441,13.129625 -9.9876,18.607125 -9.263,7.8745 -17.6415,4.329 -26.604,-1.507375 C 974.4715,61.87125 964.925,53.744 953.326,52.455 c -11.599,-1.289 -19.33175,1.93325 -24.16475,5.47775 -4.833,3.5445 -6.76625,7.41125 -6.76625,7.41125 0,0 -1.3585,-2.32125 -5.1785,-3.6425 -3.82,-1.32125 -10.1015,-1.6425 -19.9475,2.3575 -10.311,4.1885 -15.3055,9.988 -17.72225,14.740375 C 877.13,83.55175 877.291,87.257 877.291,87.257 c 0,0 -3.5435,-0.483 -9.34263,0.645 -5.79912,1.128 -13.85387,3.867 -22.87637,10.311 -9.0225,6.444 -12.8905,15.6255 -14.50288,23.196 -1.61237,7.5705 -0.96912,13.53 -0.96912,13.53 0,0 -3.2555,1.45675 -7.783,5.08487 -4.5275,3.62813 -10.327,9.42763 -15.415,18.11313 -5.47494,9.34603 -6.76344,21.58953 -6.68321,31.49653 0.0802,9.90699 1.52921,17.47747 1.52921,17.47747 0,0 -3.22225,2.57775 -6.76663,7.08862 -3.54437,4.51088 -7.41087,10.95488 -8.69937,18.68738 -1.2885,7.733 2.578,16.11025 6.76662,22.55425 4.18863,6.444 8.69938,10.95475 8.69938,10.95475 0,0 -3.22225,1.28875 -6.76663,3.54412 -3.54437,2.25538 -7.41087,5.47738 -8.69937,9.34388 -1.2885,3.8665 -1.2885,10.955 1.61112,19.01 2.89963,8.055 8.69888,17.0765 19.00888,24.809 -3.866,6.444 -3.866,13.5325 -2.255,20.29875 1.611,6.76625 4.833,13.21025 7.411,18.36525 2.578,5.155 9.02175,9.0215 14.821,11.59925 5.79925,2.57775 10.954,3.86675 10.954,3.86675 0,0 3.22225,5.15525 5.15575,10.63262 1.9335,5.47738 2.57825,11.27688 -2.57675,12.56538 -5.155,1.2885 -10.95475,3.222 -15.46575,7.08875 -4.511,3.86675 -7.73325,9.66675 -7.73325,18.68825 0,9.0215 -3.86625,26.42025 -8.377,44.14125 -4.51075,17.721 -9.666,35.76425 -12.244,46.07475 -10.311,2.5775 -17.39925,9.666 -21.90975,16.11012 -4.5105,6.44413 -6.44325,12.24388 -6.44325,12.24388 0,0 0.64425,2.5775 -0.64475,5.79937 -1.289,3.22188 -4.51125,7.08813 -12.24425,9.66563 -7.7325,2.578 -21.90925,13.5325 -35.11938,25.1315 -13.21012,11.599 -25.45362,23.8425 -29.31962,28.9985 -3.866,5.156 -14.821,13.53325 -26.4205,22.87675 -11.5995,9.3435 -23.8435,19.65325 -30.2875,28.67425 -6.4445,9.0225 -19.722,30.86725 -31.51587,56.61062 C 590.39325,748.278 580.083,777.92 579.573,802.537 c -0.56242,27.147 -1.56967,59.32575 -2.25481,85.38275 -0.68515,26.057 -1.04819,45.99225 -0.32219,48.65225 0.726,2.6595 7.17025,4.5935 15.68862,6.50712 8.51838,1.91363 19.11088,3.80688 28.13338,6.38488 9.022,2.578 28.03225,9.98875 48.00887,17.39938 19.97663,7.41062 40.91963,14.82112 53.80713,17.39862 12.8875,2.578 29.964,9.02225 45.42962,14.66087 15.46563,5.63863 29.32038,10.47163 35.76438,9.82713 6.4445,-0.645 9.3445,-10.95575 10.63337,-22.07187 1.28888,-11.11613 0.96663,-23.03763 0.96663,-26.90413 0,-3.8665 -1.61075,-13.21075 -3.38275,-23.19925 -1.772,-9.9885 -3.70525,-20.62125 -4.35025,-27.06475 -0.645,-6.4435 -1.28925,-15.46525 -1.45012,-24.64812 C 806.084,875.679 806.4065,866.335 807.695,859.247 c 1.28859,-7.08848 3.86659,-16.43173 5.96119,-25.29186 2.0946,-8.86013 3.70581,-17.23714 3.06081,-22.39314 -0.6445,-5.156 -4.7885,-13.93275 -8.47162,-21.22088 C 804.56225,783.053 801.34,777.2535 802.539,778.052 c 17.3985,11.599 20.943,35.11975 20.13788,57.51275 -0.80513,22.393 -5.95988,43.65825 -5.95988,50.74625 0,7.0885 1.61075,24.1655 2.57713,44.30337 0.96637,20.13788 1.28837,43.33663 -1.28913,62.66863 -2.5775,19.332 -1.2885,26.098 3.3835,28.9977 4.672,2.8998 12.727,1.9333 23.6815,5.8003 10.9545,3.866 28.67575,5.1542 49.619,5.9595 20.94325,0.8053 45.1085,1.1275 68.951,3.0615 23.8435,1.933 51.8745,2.6177 76.3611,1.6915 24.4867,-0.9263 45.4289,-3.4635 55.0949,-7.9745 0,-5.8 0.7253,-13.2507 1.3296,-20.8424 0.6044,-7.5916 1.0879,-15.3241 0.6044,-21.6876 -0.4845,-6.3645 -1.2898,-20.90325 -1.9739,-34.17313 -0.6841,-13.26987 -1.2471,-25.27087 -1.2471,-26.55987 0,-1.2895 -3.2217,-1.612 -6.4435,-1.61212 -3.2217,-1.3e-4 -6.4435,0.32212 -6.4435,0.32212 0,0 -1.162,3.04625 -2.8707,6.50263 -1.7088,3.45637 -3.9643,7.32287 -6.1513,8.96337 -3.866,2.89996 -10.9545,4.18846 -17.4794,4.10772 -6.5249,-0.0807 -12.4861,-1.53072 -14.0976,-4.10772 -1.6115,-2.577 -4.0275,-8.376 -4.7519,-14.65862 -0.7243,-6.28263 0.2429,-13.04888 5.3979,-17.56038 5.1555,-4.511 10.9195,-6.84775 16.0568,-7.13012 5.1372,-0.28238 9.6477,1.48962 12.2962,5.19612 3.2225,4.5105 8.539,6.60475 13.0499,7.57138 4.5109,0.96662 8.2161,0.80562 8.2161,0.80562 0,0 -1.1277,-6.928 -2.5775,-15.064 -1.4497,-8.136 -3.2215,-17.48 -4.5095,-22.312 -1.2885,-4.832 -5.477,-15.786 -9.5045,-26.17663 -4.0275,-10.39062 -7.894,-20.21787 -8.5385,-22.79637 -0.6445,-2.5775 -2.2557,-9.9885 -4.028,-17.23837 -1.7722,-7.24988 -3.7055,-14.33863 -4.994,-16.27163 -1.2885,-1.933 -4.5107,-2.57775 -7.8941,-2.578 -3.3834,-2.5e-4 -6.9279,0.644 -8.8609,1.289 -1.933,0.6445 -2.371,3.07125 -3.3955,6.21788 -1.0245,3.14662 -2.6355,7.01312 -6.9145,10.53712 -5.478,4.511 -12.4935,4.26675 -18.4177,2.29188 -5.9243,-1.97488 -10.7573,-5.68038 -11.8703,-8.09188 -1.93294,-4.18803 -1.93294,-11.43753 0.32242,-17.80115 2.25538,-6.36361 6.76608,-11.84135 13.85458,-12.48585 7.088,-0.645 11.4375,-0.806 14.3375,0.16088 2.9,0.96687 4.3505,3.06162 5.6405,6.92812 1.29,3.8665 4.834,3.3825 8.0555,1.60988 3.2215,-1.77263 6.1205,-4.83388 6.1205,-6.12188 0,-1.2885 -3.8662,-10.63275 -8.5379,-21.26575 -4.6716,-10.633 -10.1486,-22.55475 -13.3701,-28.99825 -3.2215,-6.4435 -8.0545,-17.72075 -13.0487,-28.51475 -4.9943,-10.794 -10.1498,-21.10475 -14.0163,-25.61525 -3.866,-4.5105 -7.7325,-5.15475 -10.6325,-4.67137 -2.9,0.48337 -4.8335,2.09437 -4.8335,2.09437 0,0 0.4835,4.189 3.8e-4,9.58625 -0.48313,5.39725 -1.93288,12.00275 -5.79938,16.83575 -1.8005,2.249 -8.28275,5.2205 -14.85975,6.06325 -6.577,0.84275 -13.24875,-0.44325 -15.42825,-6.70925 -2.578,-7.4095 -4.18875,-13.85325 -3.383,-19.08912 0.80575,-5.23588 4.028,-9.26388 11.116,-11.84188 7.088,-2.577 11.76,-1.6105 15.46538,-0.96625 3.70537,0.64425 6.44412,0.96625 9.66562,-2.89975 2.6095,-3.1305 5.026,-5.547 5.98475,-8.71125 0.95875,-3.16425 0.45975,-7.07625 -2.76175,-13.19775 -0.6,-1.141 -0.5995,-3.3965 -1.738,-5.689 -1.1385,-2.2925 -3.416,-4.622 -8.572,-5.911 -5.156,-1.289 -9.989,-5.7995 -13.93575,-11.921 -3.94675,-6.1215 -7.00725,-13.854 -8.61825,-21.587 -1.452,-6.9685 -6.76775,-22.112 -12.52612,-36.80225 C 931.8265,543.5515 925.6255,529.3145 922.403,524.159 919.1805,519.0035 918.21375,511.91525 917.56938,505.79363 916.925,499.672 916.603,494.517 914.67,493.228 912.7365,491.939 905.6475,487.42825 896.94775,482.27313 888.248,477.118 877.9375,471.3185 869.561,467.452 c -8.3765,-3.8665 -15.46475,-8.69925 -21.10325,-14.1765 -5.6385,-5.47725 -9.82725,-11.599 -12.40475,-18.0435 -2.5775,-6.4445 -4.18825,-10.9555 -4.34925,-14.66087 -0.161,-3.70538 1.12775,-6.60513 4.34925,-9.82713 0,0 6.44325,5.6385 13.20875,12.0825 6.7655,6.444 13.85325,13.6935 15.14225,16.9155 1.289,3.222 13.533,12.888 25.938,22.39288 12.405,9.50487 24.971,18.84862 26.904,21.42612 1.9335,2.5775 4.8335,8.37725 7.25038,13.93538 2.41687,5.55812 4.35062,10.87462 4.35162,12.48562 0,0 6.44375,7.41075 13.693,15.788 7.24925,8.37725 15.304,17.721 18.526,21.587 3.2215,3.8665 6.1615,12.526 9.26263,22.313 3.10112,9.787 6.36337,20.7015 10.22937,29.078 3.866,8.3765 9.3035,14.861 15.38538,18.768 6.08192,3.907 12.80812,5.2365 19.25162,3.303 6.4435,-1.9335 20.5803,-3.50475 34.3948,-5.23675 13.8145,-1.732 27.3067,-3.62475 32.4612,-6.20125 5.155,-2.577 6.3633,-8.86 6.041,-18.00262 -0.3222,-9.14263 -2.175,-21.14488 -3.142,-35.16038 -0.8975,-13.017 1.9623,-23.9315 5.5298,-33.04162 3.5675,-9.11013 7.8427,-16.41588 9.7762,-22.21538 l 5.156,-5.7995 5.156,-5.7995 c 6.5235,2.0135 13.1685,4.47 18.2431,11.1555 5.0747,6.6855 8.5789,17.6 8.8209,36.5295 0.074,5.7995 4.5852,21.26525 9.2385,36.56988 4.6533,15.30462 9.449,30.44812 10.0935,35.60312 0.645,5.1555 0.9675,11.92125 1.4509,17.72063 0.4834,5.79937 1.1276,10.63237 2.4161,11.92237 1.288,1.289 9.3428,8.3775 17.7199,15.14375 8.3771,6.76625 17.0766,13.21025 19.6541,13.21025 0.645,10.311 1.2893,20.943 1.9334,31.25288 0.6441,10.30987 1.2881,20.29762 1.9326,29.32012 0.6445,9.0225 2.618,26.059 3.7858,42.28963 1.1677,16.23062 1.5297,31.65537 -1.0488,37.45437 -2.5775,5.8 -7.45,11.962 -12.1614,18.28513 -4.7113,6.32312 -9.2616,12.80737 -11.1946,19.25187 -1.9335,6.4445 -7.4107,19.0105 -13.049,30.93188 -5.6382,11.92137 -11.4375,23.19812 -14.015,27.06412 -2.5779,3.86658 -7.0486,6.24308 -10.8952,8.39793 -3.8465,2.15486 -7.0688,4.08807 -7.1498,7.06807 -0.081,2.98 2.497,5.5575 5.0953,9.48425 2.5982,3.92675 5.2167,9.20275 5.2167,17.57975 0,8.377 0.322,19.0095 0.644,28.5145 0.322,9.505 0.644,17.8825 0.644,21.7495 0,3.866 0.5635,10.028 1.127,16.029 0.5635,6.001 1.127,11.841 1.127,15.063 0,0 16.9965,-1.8925 36.7315,-5.2552 19.735,-3.3628 42.2085,-8.1958 53.1625,-14.0768 10.954,-5.881 27.1447,-20.38 40.597,-33.40875 13.4522,-13.02875 24.166,-24.58725 24.166,-24.58725 6.4445,-4.5105 16.5132,-10.99475 24.8098,-17.80112 8.2964,-6.80638 14.8207,-13.93488 14.1762,-19.73388 -1.061,-9.5465 -2.6445,-34.9495 -4.0571,-58.81713 -1.4126,-23.86762 -2.6544,-46.19987 -3.0319,-49.60487 -0.644,-5.7995 -5.3157,-22.836 -10.9542,-38.90587 -5.6385,-16.06988 -12.2438,-31.17313 -16.7548,-33.10613 -4.511,-1.933 -18.6875,-27.0645 -32.3805,-52.35712 -13.693,-25.29263 -26.9025,-50.74638 -29.4795,-53.32388 -2.577,-2.5775 -14.821,-8.69925 -27.2261,-14.49875 -12.4052,-5.7995 -24.9714,-11.27675 -28.1929,-12.56525 -3.2215,-1.2895 -9.9875,-24.488 -15.9481,-47.68637 C 1169.8552,528.02625 1164.7,504.828 1164.7,503.539 c 0,0 -11.7603,-7.89375 -23.6816,-16.35137 C 1129.097,478.73 1117.0145,469.7085 1116.37,467.453 c -0.645,-2.2555 2.8183,-26.944 6.161,-51.29012 3.3428,-24.34613 6.565,-48.34988 5.438,-49.23588 -2.7385,20.3795 -8.216,48.57225 -17.6009,74.0055 -9.3849,25.43325 -22.6771,48.107 -41.0451,57.4485 -9.021,3.8665 -21.9077,7.57275 -38.0166,6.76825 -16.1089,-0.8045 -35.4399,-6.11975 -57.3494,-20.29625 -21.91,-14.177 -38.66425,-23.35975 -51.87413,-30.28712 C 908.873,447.6385 899.2075,442.9665 891.475,437.811 883.7425,432.6555 879.71475,426.0505 877.62012,419.76775 875.5255,413.485 875.364,407.5245 875.364,403.658 c -7.089,-0.6445 -11.27625,-2.2545 -14.25575,-4.91212 -2.9795,-2.65763 -4.75125,-6.36288 -7.00925,-11.19788 -3.4915,-7.477 -7.67975,-12.149 -11.63963,-16.88487 C 838.4995,365.92725 834.768,361.1275 832.19,353.395 c -2.578,-7.733 -3.868,-17.239 -2.58025,-23.84525 1.28775,-6.60625 5.15325,-10.31275 12.88625,-6.44675 7.733,3.8665 12.88925,7.08975 17.07888,11.60175 4.18962,4.512 7.41262,10.31275 11.27912,19.33425 3.866,9.0215 6.2805,8.69925 7.7295,3.86625 1.449,-4.833 1.9325,-14.17675 1.9365,-23.19825 0.001,-4.187 0.32375,-6.926 1.20937,-9.1015 0.88563,-2.1755 2.33463,-3.7875 4.58963,-5.7205 2.255,-1.933 13.12875,-4.47025 23.43875,-6.52425 10.31,-2.054 20.05625,-3.62475 20.05625,-3.62475 5.0745,-6.766 11.9615,-13.04875 19.51313,-17.64 7.55162,-4.59125 15.76787,-7.491 23.50087,-7.491 7.7325,0 14.37775,2.779 19.27112,6.10163 4.89338,3.32262 8.03488,7.18887 8.75988,9.36337 0.7245,2.175 -0.4438,5.5985 -2.29638,8.69975 C 996.71,311.871 994.173,314.65 992.16,315.536 c -1.9785,0.8705 -4.395,2.32025 -8.0085,3.67325 -3.6135,1.353 -8.424,2.60925 -15.1905,3.09275 -6.766,0.48346 -12.5655,2.1e-4 -17.64013,-0.6039 -5.07462,-0.60412 -9.42437,-1.3291 -13.29087,-1.3291 3.1425,-4.43 6.199,-7.277 9.20337,-9.46487 3.00438,-2.18788 5.95663,-3.71663 8.89063,-5.51013 l 0.1355,0.238 0.1355,0.238 c 0,2.1355 0.97375,4.06875 2.548,5.46813 1.57425,1.39937 3.749,2.26487 6.151,2.26487 2.402,0 4.577,-0.8655 6.1515,-2.26487 1.5745,-1.39938 2.5485,-3.33263 2.5485,-5.46813 0,-0.534 -0.061,-1.055 -0.177,-1.55812 -0.116,-0.50313 -0.287,-0.98838 -0.507,-1.45088 l 0.792,-0.1065 0.792,-0.1065 c 3.0135,0.4575 5.92975,1.26325 8.69675,2.31713 2.767,1.05387 5.38475,2.35587 7.80125,3.80587 2.4165,1.4495 5.51775,2.134 8.2565,1.73113 2.7387,-0.40288 5.115,-1.89313 6.0815,-4.79313 0.967,-2.8995 0.524,-6.117 -0.1608,-10.06175 -0.6847,-3.94475 -1.6112,-8.61675 -1.6112,-14.42525 0,-3.625 0.846,-6.44425 1.5711,-8.71975 0.7251,-2.2755 1.3294,-4.00725 0.8459,-5.45725 -0.4835,-1.4495 -5.3175,-2.3375 -11.72163,-2.82187 -6.40412,-0.48438 -14.37837,-0.56513 -21.14237,-0.40013 -9.9075,0.2415 -19.211,2.2955 -27.36675,5.01413 -8.15575,2.71862 -15.16375,6.10187 -20.48025,9.00187 l -17.6405,13.774 -17.6405,13.774 c 0,-5.1555 2.89925,-13.614 4.18737,-21.42812 1.28813,-7.81413 0.96513,-14.98388 -5.47937,-17.56188 -6.4445,-2.578 -10.955,-9.6665 -13.53225,-17.07712 -2.57725,-7.41063 -3.22125,-15.14338 -1.93275,-19.00988 7.7325,3.8665 17.72175,7.57275 26.58325,9.668 8.8615,2.09525 16.59525,2.5795 19.81675,0.002 3.2215,-2.5775 -3.867,-4.0275 -12.083,-7.41062 -8.216,-3.38313 -17.5595,-8.69938 -18.848,-19.00938 -1.2885,-10.31 3.37025,-7.249 10.291,-1.6105 6.92075,5.6385 16.1035,13.8545 23.863,13.8545 8.6995,0 2.9,-4.34975 -3.86613,-9.98825 C 912.41675,210.17725 904.684,203.25 909.517,198.095 c 3.2085,-3.4225 8.76575,-9.7055 13.52087,-15.13287 4.75513,-5.42738 8.70813,-9.99913 8.70813,-9.99913 0,0 -0.402,8.86025 2.90125,17.07625 3.30325,8.216 10.31175,15.78775 25.13275,13.21075 14.8205,-2.5775 26.742,-8.055 35.44162,-13.5325 8.69958,-5.4775 14.17738,-10.955 16.11038,-13.5325 9.0225,-0.6445 12.8895,0.32225 16.2729,2.41663 3.3833,2.09437 6.2831,5.31637 13.3711,9.18237 7.0885,3.8665 13.2105,12.888 16.755,22.23175 3.5445,9.34375 4.5115,19.00975 1.29,24.16525 l 5.1565,-12.2435 5.1565,-12.2435 c 2.5775,-5.7995 4.513,0.96675 7.5761,9.98838 3.0632,9.02162 7.2539,20.29862 14.3419,23.52062 7.0885,3.2215 13.8585,4.188 18.8564,4.34913 4.9978,0.16112 8.2236,-0.48313 8.2236,-0.48313 0.644,3.544 1.6175,12.56575 2.5106,21.50688 0.8931,8.94112 1.7059,17.80162 2.0284,21.02312 -5.477,-7.7325 -8.3718,-12.96825 -10.9997,-16.93537 -2.628,-3.96713 -4.9893,-6.66563 -9.3993,-9.32363 -4.41,-2.658 -12.4148,-4.108 -20.3741,-4.41025 -7.9594,-0.30225 -15.8734,0.54325 -20.1019,2.47625 -4.229,1.9335 -8.2765,6.7665 -11.2668,12.08275 -2.9902,5.31625 -4.9232,11.11575 -4.9232,14.98225 0,0 -0.4835,1.57075 -0.7253,3.68525 -0.2417,2.1145 -0.2417,4.77275 0.7253,6.94775 0.9665,2.175 3.3687,10.9085 5.7379,19.66525 2.3691,8.75675 4.7051,17.53675 5.5391,19.80475 1.572,4.2695 4.1897,10.35075 6.5354,16.08963 2.3456,5.73887 4.4191,11.13537 4.9026,14.03537 0.4834,2.89951 1.4904,6.96726 1.3897,10.69276 -0.1007,3.7255 -1.3092,7.10874 -5.2567,8.63924 -4.8535,1.881 -7.0283,2.36425 -7.5063,1.5315 -0.478,-0.83275 0.7408,-2.9815 2.6743,-6.3645 1.933,-3.3835 1.3405,-5.325 -0.1035,-5.63112 -1.444,-0.30613 -3.7395,1.02312 -5.2125,4.18112 -1.692,3.625 -4.471,6.52475 -7.4311,8.035 -2.9602,1.51025 -6.1014,1.631 -8.5179,-0.302 -2.4165,-1.933 -2.1748,-4.47025 -1.4498,-6.766 0.725,-2.29575 1.9333,-4.35 1.4498,-5.317 -0.4835,-0.967 -4.1083,-1.692 -7.733,-1.3295 -3.6248,0.3625 -7.2495,1.8125 -7.733,5.1955 -0.4836,3.38349 -3.0463,4.69824 -5.8983,4.38899 -2.852,-0.30925 -5.9932,-2.24249 -7.6337,-5.35499 -2.3355,-4.4305 -0.7643,-8.49825 1.3909,-12.0625 2.1551,-3.56425 4.8941,-6.625 4.8941,-9.0415 -3.8665,2.9 -8.4495,5.867 -13.238,9.36413 -4.7885,3.49712 -9.7825,7.52437 -14.471,12.54487 -6.8455,7.33 -12.04925,18.074 -15.43713,27.252 -3.38787,9.178 -4.95987,16.79 -4.54187,17.856 -0.002,5e-4 0.56025,-0.72425 2.09037,-2.35525 1.53013,-1.631 4.02763,-4.16825 7.89463,-7.79275 z"
   id="path78"
   sodipodi:nodetypes="cscscscssssssscscccscscssscscscssscssscssscscscscscssscssscssssscssscssscssssscscssscssscssscscscscscssscscscssscssscscscssscssscssssscscscssscssscscscscssssssscscssssscscscscssscssssscscscscscssscscssscssssssscscscscscscscssscssscssssscssscscscssssscscscccscscscscssscscssssssssscssscssscssssscscscscscscssscscscscscscssscssscscssscscccssssscccscscssscscscccssscssssssscscscscscscccscscscssscscscscssscscscssssssscscscscsc" />
</g>
<g
   id="g82">
</g>
<g
   id="g84">
</g>
<g
   id="g86">
</g>
<g
   id="g88">
</g>
<g
   id="g90">
</g>
<g
   id="g92">
</g>
<g
   id="g94">
</g>
<g
   id="g96">
</g>
<g
   id="g98">
</g>
<g
   id="g100">
</g>
<g
   id="g102">
</g>
<g
   id="g104">
</g>
<g
   id="g106">
</g>
<g
   id="g108">
</g>
<g
   id="g110">
</g>
</svg>
