<?xml version="1.0" encoding="UTF-8" standalone="no"?>
<svg
   xmlns:dc="http://purl.org/dc/elements/1.1/"
   xmlns:cc="http://creativecommons.org/ns#"
   xmlns:rdf="http://www.w3.org/1999/02/22-rdf-syntax-ns#"
   xmlns:svg="http://www.w3.org/2000/svg"
   xmlns="http://www.w3.org/2000/svg"
   xmlns:sodipodi="http://sodipodi.sourceforge.net/DTD/sodipodi-0.dtd"
   xmlns:inkscape="http://www.inkscape.org/namespaces/inkscape"
   id="svgimage"
   width="339"
   height="314"
   version="1.1"
   sodipodi:docname="swirl.svg"
   inkscape:version="1.0.2 (e86c870879, 2021-01-15)">
  <metadata
     id="metadata59">
    <rdf:RDF>
      <cc:Work
         rdf:about="">
        <dc:format>image/svg+xml</dc:format>
        <dc:type
           rdf:resource="http://purl.org/dc/dcmitype/StillImage" />
      </cc:Work>
    </rdf:RDF>
  </metadata>
  <defs
     id="defs57" />
  <sodipodi:namedview
     pagecolor="#ffffff"
     bordercolor="#666666"
     borderopacity="1"
     objecttolerance="10"
     gridtolerance="10"
     guidetolerance="10"
     inkscape:pageopacity="0"
     inkscape:pageshadow="2"
     inkscape:window-width="1393"
     inkscape:window-height="1396"
     id="namedview55"
     showgrid="false"
     inkscape:zoom="3.5221239"
     inkscape:cx="169.5"
     inkscape:cy="157"
     inkscape:window-x="5"
     inkscape:window-y="33"
     inkscape:window-maximized="0"
     inkscape:current-layer="canvas" />
  <g
     id="canvas"
     transform="translate(169.62011,157.13625) ">
    <title
       id="title49">Three Links</title>
    <path
       id="path51"
       style="fill:none;stroke:#ff0000;stroke-width:1"
       d="m 130.00003,22 c -5.73718,-1.878395 -10.68544,-5.361424 -14.62492,-9.816079 -3.93948,-4.4546556 -6.87018,-9.8809374 -8.57225,-15.6458379 -1.70208,-5.7649004 -2.17552,-11.8684191 -1.20049,-17.6775491 0.97504,-5.80913 3.39856,-11.323871 7.49041,-15.911214 1.10726,-1.399225 2.62362,-2.553828 4.31516,-3.370384 1.69155,-0.816555 3.55829,-1.295064 5.36633,-1.342103 1.80804,-0.04704 3.55738,0.337394 5.01413,1.246721 1.45676,0.909326 2.62092,2.343547 3.2586,4.396086 0.68281,3.113398 0.46707,6.080491 -0.40364,8.846345 -0.87071,2.765854 -2.3964,5.330468 -4.33348,7.638908 -1.93708,2.308441 -4.28555,4.360707 -6.80183,6.101865 -2.51628,1.741157 -5.20037,3.171206 -7.80869,4.235212 -5.03628,2.084965 -10.52621,3.2696454 -16.099178,3.5629358 -5.572964,0.2932904 -11.228955,-0.3048093 -16.597338,-1.7854045 -5.368383,-1.4805951 -10.449157,-3.8436863 -14.87169,-7.0803773 -4.422532,-3.236692 -8.186821,-7.346985 -10.922234,-12.321984 -0.633645,-1.079623 -1.174286,-2.471861 -1.521248,-3.957595 -0.346962,-1.485735 -0.500244,-3.064967 -0.359172,-4.518577 0.141072,-1.453611 0.576498,-2.781599 1.406953,-3.764848 0.830455,-0.983249 2.055939,-1.621759 3.777127,-1.69641 2.204678,0.625469 3.974579,1.785246 5.38872,3.297229 1.41414,1.511984 2.47252,3.376173 3.254156,5.410467 0.781636,2.034294 1.286527,4.238692 1.593691,6.431092 0.307163,2.1924 0.416599,4.372801 0.407323,6.359102 -0.251206,7.107938 -2.08139,14.0972902 -5.1378,20.556205 -3.05641,6.4589147 -7.339045,12.387392 -12.495154,17.373579 -5.156109,4.986188 -11.185691,9.030085 -17.735994,11.719841 -6.550302,2.689756 -13.621326,4.02537 -20.860317,3.59499 C 9.5997346,33.740102 8.0560943,33.482423 6.5014664,33.070975 4.9468384,32.659526 3.3812228,32.094307 2.0098018,31.337115 0.63838084,30.579923 -0.53884548,29.630757 -1.3166949,28.451414 -2.0945443,27.272071 -2.4730167,25.862551 -2.24693,24.18465 c 1.0799719,-1.441571 2.42934185,-2.273899 3.9224314,-2.661618 1.4930896,-0.38772 3.1298988,-0.330833 4.7847492,0.006 1.6548504,0.336859 3.327742,0.953691 4.8929964,1.685858 1.565254,0.732167 3.022871,1.57967 4.247173,2.377873 5.94085,4.234467 10.662038,9.868808 14.074528,16.262896 3.41249,6.394088 5.516282,13.547923 6.222341,20.821373 0.70606,7.273451 0.01439,14.666519 -2.164055,21.539074 -2.178441,6.872554 -5.843651,13.224597 -11.084664,18.415997 -1.191095,1.17089 -2.713852,2.34107 -4.399638,3.32638 -1.685787,0.9853 -3.534604,1.78573 -5.37782,2.21711 -1.843215,0.43137 -3.68083,0.4937 -5.3442125,0.003 -1.6633824,-0.4909 -3.1525326,-1.53502 -4.2988195,-3.31654 -0.6309369,-2.17494 -0.4960756,-4.19389 0.1742107,-6.030117 0.6702863,-1.836231 1.8759975,-3.489745 3.3867603,-4.933814 1.5107628,-1.444069 3.326577,-2.678692 5.21707,-3.677141 1.890492,-0.998449 3.855663,-1.760725 5.665139,-2.260098 5.638048,-1.616079 11.623062,-1.824567 17.459426,-0.849205 5.836364,0.975362 11.524078,3.134575 16.567527,6.253901 5.04345,3.119325 9.442633,7.198764 12.701936,12.014574 3.259303,4.81581 5.378725,10.368 5.862651,16.43282 0.246197,1.98863 0.01102,4.11364 -0.618611,6.12927 -0.629626,2.01564 -1.653699,3.9219 -2.985287,5.47303 -1.331588,1.55114 -2.970691,2.74715 -4.830378,3.34227 -1.859688,0.59513 -3.939959,0.58938 -6.153884,-0.263 -2.967078,-1.40408 -5.217372,-3.46625 -6.85408,-5.93665 -1.636709,-2.47039 -2.659831,-5.34901 -3.172565,-8.38597 -0.512734,-3.03696 -0.51508,-6.23227 -0.110236,-9.33605 0.404844,-3.10379 1.216879,-6.11604 2.332906,-8.7869 1.568549,-4.049937 3.904374,-7.9113 6.801127,-11.343021 2.896752,-3.431721 6.354432,-6.433799 10.166689,-8.765169 3.812256,-2.33137 7.97909,-3.992031 12.294152,-4.740915 4.315061,-0.748884 8.77835,-0.585991 13.183517,0.729745 1.770306,0.383856 3.415779,1.280673 4.784517,2.490764 1.368737,1.210091 2.460738,2.733456 3.124099,4.370407 0.663361,1.636952 0.898082,3.387489 0.552259,5.051925 -0.345823,1.664435 -1.27219,3.242769 -2.931005,4.535314 -2.718973,1.952345 -5.685259,3.024304 -8.744274,3.408427 -3.059014,0.384123 -6.210758,0.08041 -9.300648,-0.718586 -3.08989,-0.798997 -6.117925,-2.093278 -8.929523,-3.690293 C 66.059978,93.780383 63.464818,91.880634 61.24068,89.870703 57.347086,86.395489 53.977519,82.178006 51.300177,77.520581 48.622835,72.863155 46.637718,67.765786 45.513027,62.530798 44.388335,57.29581 44.124069,51.923202 44.888428,46.715299 c 0.764359,-5.207902 2.557343,-10.2511 5.547152,-14.827269 0.61729,-1.060636 1.578453,-2.1611 2.719047,-3.118566 1.140593,-0.957466 2.460617,-1.771932 3.795629,-2.260571 1.335011,-0.488639 2.68501,-0.65145 3.885554,-0.305605 1.200543,0.345845 2.251631,1.200346 2.98882,2.746332 0.393147,2.428678 0.09132,4.694663 -0.703135,6.787443 -0.794453,2.09278 -2.081531,4.012354 -3.658883,5.748212 -1.577351,1.735858 -3.444977,3.287999 -5.400526,4.645912 -1.955549,1.357913 -3.999021,2.521598 -5.928066,3.480543 -6.26014,2.905997 -13.115297,4.481279 -20.07204,4.81334 -6.956743,0.33206 -14.015073,-0.5791 -20.6815597,-2.645988 -6.66648668,-2.066887 -12.94113,-5.289501 -18.3305003,-9.580348 -5.38937,-4.290847 -9.893467,-9.649926 -13.01886,-15.989744 -0.525431,-1.212407 -1.057075,-2.665104 -1.462056,-4.201523 -0.40498,-1.536419 -0.683297,-3.156562 -0.702071,-4.703861 -0.01877,-1.5473 0.221994,-3.021756 0.855182,-4.266804 0.633189,-1.245048 1.658798,-2.260688 3.209705,-2.890352 1.788413,0.214399 3.183919,0.966748 4.266253,2.065882 1.082333,1.099133 1.851494,2.54505 2.387217,4.146585 0.535722,1.601536 0.838006,3.358689 0.986587,5.080295 0.14858,1.721606 0.143456,3.407664 0.06436,4.867008 -0.696633,7.262182 -3.215441,14.168049 -7.046571,20.320432 -3.83113,6.152383 -8.974583,11.551282 -14.920508,15.799527 -5.945925,4.248246 -12.694322,7.345838 -19.735339,8.895608 -7.041017,1.549769 -14.374655,1.551717 -21.491062,-0.391327 -1.609596,-0.44606 -3.384417,-1.179689 -5.080649,-2.146944 -1.696233,-0.967256 -3.313877,-2.168138 -4.609121,-3.548703 -1.295243,-1.380566 -2.268086,-2.940816 -2.674715,-4.626807 -0.40663,-1.685991 -0.247046,-3.497724 0.722565,-5.381256 1.567999,-1.63393 3.383834,-2.526666 5.309161,-2.86435 1.925328,-0.337685 3.960149,-0.120319 5.96612,0.465954 2.005971,0.586273 3.983093,1.541453 5.793024,2.679397 1.809931,1.137944 3.45267,2.458651 4.789875,3.775979 4.218661,4.074602 7.391796,9.153491 9.465359,14.695587 2.073563,5.542095 3.047555,11.547396 2.867932,17.474821 -0.179623,5.927424 -1.512862,11.776972 -4.053759,17.007562 -2.540897,5.23059 -6.289453,9.84222 -11.299712,13.29381 -1.59909,1.20756 -3.556981,2.06644 -5.617386,2.52905 -2.060404,0.4626 -4.223322,0.52893 -6.232462,0.15138 -2.009141,-0.37756 -3.864505,-1.19899 -5.309804,-2.51192 -1.445298,-1.31292 -2.48053,-3.11733 -2.849408,-5.46083 -0.267663,-3.27158 0.393004,-6.25147 1.714003,-8.90411 1.321,-2.65263 3.302331,-4.97801 5.675997,-6.94056 2.373667,-1.962555 5.139667,-3.562278 8.030005,-4.763603 2.890338,-1.201326 5.905012,-2.004253 8.776026,-2.373212 4.291635,-0.666635 8.803602,-0.574497 13.22396,0.218246 4.420357,0.792742 8.749105,2.286089 12.6743,4.42187 3.925195,2.135779 7.446837,4.913999 10.252985,8.276479 2.806147,3.36248 4.896799,7.30923 5.960014,11.78207 0.552758,1.72504 0.598881,3.59848 0.235337,5.38891 -0.363544,1.79043 -1.136754,3.49785 -2.222662,4.89087 -1.085908,1.39302 -2.484514,2.47163 -4.09885,3.00442 -1.614335,0.5328 -3.4444,0.51979 -5.393225,-0.27044 -3.050283,-1.37843 -5.461795,-3.41126 -7.323995,-5.86832 -1.862199,-2.45706 -3.175087,-5.33836 -4.028122,-8.41374 -0.853035,-3.07538 -1.246219,-6.34485 -1.269009,-9.57824 -0.02279,-3.2334 0.324811,-6.43072 0.953345,-9.361827 1.06276,-5.1096 3.030365,-10.136515 5.725096,-14.78392 2.69473,-4.647406 6.116586,-8.915302 10.087847,-12.506864 3.971261,-3.591562 8.491927,-6.50679 13.384279,-8.448858 4.892351,-1.942068 10.1563875,-2.910977 15.614389,-2.609901 1.2271889,0.0043 2.66082105,0.286393 4.060339,0.795409 1.3995179,0.509015 2.7649217,1.244916 3.8556539,2.156719 1.0907323,0.911803 1.9067931,1.999508 2.207625,3.212133 0.300832,1.212625 0.086435,2.550169 -0.8837479,3.961649 -1.9066444,1.554866 -4.0199004,2.426516 -6.22948303,2.784937 -2.20958267,0.35842 -4.51549187,0.203611 -6.80744267,-0.294443 -2.2919509,-0.498053 -4.5699433,-1.33935 -6.7236923,-2.353904 -2.153749,-1.014555 -4.183255,-2.202367 -5.978232,-3.39345 -5.646807,-3.968377 -10.438686,-9.117426 -14.204697,-14.976078 -3.76601,-5.858651 -6.506152,-12.426905 -8.049485,-19.233691 -1.543332,-6.806786 -1.889855,-13.852104 -0.868629,-20.664885 1.021227,-6.8127798 3.410204,-13.393022 7.337871,-19.269656 0.787263,-1.0612762 1.779507,-2.2480791 2.90759,-3.367051 1.128082,-1.118972 2.392004,-2.170114 3.722621,-2.960068 1.330617,-0.789953 2.72793,-1.318719 4.122796,-1.39294 1.394866,-0.07422 2.787284,0.306103 4.108113,1.334329 0.708617,1.655951 0.754887,3.240635 0.344237,4.7275108 -0.41065,1.4868759 -1.278221,2.8759443 -2.397286,4.1406656 -1.119066,1.2647212 -2.489625,2.4050952 -3.906252,3.3945824 -1.416627,0.98948713 -2.879322,1.82808742 -4.182659,2.4892612 -6.63752,3.0278853 -13.877561,4.2995533 -21.121241,4.0579655 -7.24368,-0.2415877 -14.491,-1.9964312 -21.143078,-5.02156898 -6.652078,-3.02513782 -12.708913,-7.32056982 -17.571626,-12.64333452 -4.862712,-5.322765 -8.531301,-11.672863 -10.406885,-18.807332 -0.41852,-1.617 -0.67062,-3.520871 -0.68111,-5.473501 -0.0105,-1.95263 0.22063,-3.954018 0.76857,-5.766053 0.54794,-1.812034 1.412695,-3.434715 2.669465,-4.629928 1.25677,-1.195214 2.905555,-1.962961 5.021555,-2.065128 2.199034,0.540864 3.880103,1.666979 5.135239,3.165459 1.255135,1.49848 2.084337,3.369325 2.579634,5.39965 0.495296,2.030325 0.656689,4.220128 0.576207,6.356526 -0.08048,2.136397 -0.402839,4.219387 -0.87504,6.036085 -1.419301,5.690804 -4.231113,10.978304 -7.993871,15.545156 -3.762758,4.5668528 -8.476459,8.4130583 -13.699539,11.2212742 -5.22309,2.80821596 -10.95555,4.5784423 -16.75583,4.9933364 -5.80027,0.4148942 -11.66836,-0.5255438 -17.1627,-3.1386566 -1.84533,-0.7810414 -3.56814,-2.047149 -4.99902,-3.6001797 -1.43088,-1.5530307 -2.56985,-3.3929846 -3.24752,-5.3217186 -0.67768,-1.9287337 -0.89405,-3.9462487 -0.47974,-5.8543997 0.4143,-1.908151 1.45929,-3.706939 3.30433,-5.198222 2.69937,-1.867671 5.61032,-2.785534 8.56804,-2.967899 2.95772,-0.182366 5.96221,0.370767 8.84866,1.445089 2.88645,1.074322 5.65487,2.669834 8.14043,4.572226 2.48556,1.902392 4.68828,4.111665 6.44333,6.413509 2.7232,3.3833239 4.89945,7.336854 6.42316,11.56135863 1.5237,4.22450467 2.39486,8.71998377 2.50787,13.18720537 0.11302,4.467222 -0.53211,8.906187 -2.04097,13.017663 -1.50887,4.111475 -3.88147,7.895462 -7.2234,11.052728 -1.21752,1.341238 -2.81688,2.317946 -4.5492,2.898384 -1.73232,0.580438 -3.5976,0.764606 -5.34697,0.520763 -1.74936,-0.243842 -3.3828,-0.915694 -4.65144,-2.047297 -1.26863,-1.131603 -2.17246,-2.722956 -2.4626,-4.8058 -0.33147,-3.330809 0.22317,-6.435637 1.41988,-9.276877 1.19671,-2.841241 3.03548,-5.418893 5.27226,-7.695352 2.23679,-2.276458 4.87159,-4.251722 7.66035,-5.888186 2.78876,-1.636463 5.73148,-2.9341258 8.58412,-3.8553811 4.95643,-1.6344994 10.293675,-2.4440305 15.665828,-2.4340915 5.372154,0.00994 10.779213,0.8393484 15.875262,2.4827297 5.09605,1.6433814 9.88109,4.1007349 14.009205,7.3665619 4.128115,3.265828 7.599305,7.340129 10.067655,12.217406 0.609914,1.064909 1.082432,2.447539 1.341415,3.914076 0.258983,1.466536 0.304431,3.016979 0.0602,4.417513 -0.244226,1.400534 -0.778128,2.65116 -1.677843,3.518062 -0.899715,0.866901 -2.165244,1.35008 -3.872726,1.215719 -2.299879,-0.873679 -4.111389,-2.267914 -5.526599,-4.002197 -1.415209,-1.734283 -2.434118,-3.808615 -3.148793,-6.042486 -0.714676,-2.233871 -1.125118,-4.627282 -1.323395,-6.999726 -0.198277,-2.372444 -0.184389,-4.72392 -0.0504,-6.873921 0.613223,-6.874497 2.676415,-13.5989434 5.867088,-19.7897692 3.190673,-6.1908257 7.508826,-11.8480308 12.631971,-16.5880438 5.123145,-4.740012 11.051281,-8.562833 17.461921,-11.084892 6.41064,-2.522058 13.303783,-3.743353 20.35694,-3.280315 1.3127574,0.151143 2.8367103,0.417031 4.3698414,0.83447 1.5331311,0.417439 3.0754403,0.986429 4.4249102,1.743779 1.3494699,0.75735 2.5061005,1.703059 3.2678744,2.873935 0.7617738,1.170876 1.128691,2.566919 0.898734,4.224936 -1.0796945,1.441699 -2.42887031,2.274155 -3.9218211,2.662001 -1.4929507,0.387847 -3.1296765,0.331086 -4.7844708,-0.0057 -1.6547943,-0.336736 -3.3276572,-0.953447 -4.8928821,-1.685499 -1.565225,-0.732051 -3.022813,-1.579443 -4.247056,-2.377541 -5.941052,-4.234247 -10.662434,-9.868415 -14.075119,-16.26238 -3.412684,-6.393965 -5.516671,-13.547725 -6.222932,-20.821156 -0.706261,-7.27343 -0.0148,-14.666531 2.163423,-21.539175 2.178219,-6.872644 5.843192,-13.224833 11.083948,-18.416439 1.191103,-1.17098 2.713845,-2.34129 4.399624,-3.32674 1.685779,-0.98545 3.534595,-1.78604 5.377845,-2.21758 1.84325,-0.43155 3.6809331,-0.49404 5.3444476,-0.003 1.6635145,0.49073 3.1528599,1.5347 4.2994334,3.31608 0.6312084,2.17481 0.4965775,4.19369 -0.1735092,6.029904 -0.6700867,1.836213 -1.8756293,3.489755 -3.3862445,4.933874 -1.5106152,1.444119 -3.3263033,2.678816 -5.2166803,3.67734 -1.890377,0.998524 -3.855444,1.760875 -5.664816,2.260302 -5.638022,1.61634 -11.623037,1.82507 -17.459439,0.849926 -5.836402,-0.975145 -11.524191,-3.134164 -16.567758,-6.253323 -5.043567,-3.119159 -9.442914,-7.198453 -12.702432,-12.014163 -3.259518,-4.8157 -5.379207,-10.36781 -5.863461,-16.43259 -0.246304,-1.98862 -0.01127,-4.11368 0.618195,-6.12941 0.629469,-2.01573 1.653377,-3.92213 2.984829,-5.47344 1.331453,-1.5513 2.97045,-2.74751 4.830097,-3.34286 1.859648,-0.59535 3.939945,-0.58984 6.153999,0.26229 2.96716,1.40379 5.217563,3.46574 6.854398,5.93596 1.636834,2.47022 2.660101,5.34871 3.172987,8.38558 0.512886,3.03687 0.515392,6.23212 0.110707,9.33586 -0.404685,3.10374 -1.216563,6.11597 -2.332443,8.78681 -1.568388,4.05007 -3.904072,7.911571 -6.80071,11.34344 -2.896637,3.431868 -6.354228,6.434105 -10.166429,8.765648 -3.812202,2.331544 -7.979014,3.992393 -12.294095,4.741488 -4.315081,0.749094 -8.77843,0.586432 -13.183705,-0.729046 -1.770302,-0.383742 -3.415867,-1.280432 -4.784753,-2.490411 -1.368885,-1.209978 -2.461091,-2.733245 -3.124672,-4.370139 -0.663582,-1.636895 -0.898541,-3.387416 -0.552933,-5.051905 0.345608,-1.664488 1.271783,-3.242944 2.930468,-4.535705 2.718751,-1.952535 5.684878,-3.024677 8.743779,-3.408978 3.058901,-0.384302 6.210577,-0.08076 9.300429,0.718066 3.089851,0.798828 6.117877,2.092944 8.929478,3.689797 2.811601,1.596853 5.406776,3.496442 7.630927,5.506216 3.893801,3.475102 7.263567,7.6925 9.941101,12.349873 2.677534,4.657373 4.662836,9.754722 5.787713,14.989727 1.124877,5.235005 1.389328,10.607666 0.625159,15.815664 -0.76417,5.207998 -2.55696,10.251333 -5.546566,14.827685 -0.617272,1.060668 -1.578389,2.16123 -2.718941,3.118829 -1.140552,0.957599 -2.460539,1.772236 -3.795551,2.261057 -1.335012,0.488821 -2.68505,0.651826 -3.885703,0.30616 -1.200653,-0.345666 -2.251921,-1.200003 -2.989395,-2.745866 -0.393396,-2.428549 -0.09178,-4.694453 0.702485,-6.787186 0.794266,-2.092733 2.081181,-4.012295 3.658382,-5.74816 1.577202,-1.735865 3.444691,-3.288034 5.400104,-4.64598 1.955413,-1.357946 3.99875,-2.521669 5.927649,-3.480644 6.26008,-2.906274 13.115209,-4.481803 20.071962,-4.814086 6.956753,-0.332284 14.015129,0.578678 20.6817035,2.645385 6.66657425,2.066708 12.9413464,5.289161 18.3308905,9.579861 5.389545,4.2907 9.893861,9.649646 13.019524,15.98934 0.525514,1.212475 1.057259,2.665214 1.462347,4.201678 0.405088,1.536464 0.68352,3.156653 0.702407,4.704027 0.01889,1.547374 -0.221768,3.021933 -0.854857,4.267139 -0.633088,1.245206 -1.658608,2.261057 -3.209447,2.891016 -1.788389,-0.214093 -3.183911,-0.966208 -4.266285,-2.065157 -1.082374,-1.098948 -1.851601,-2.54473 -2.387401,-4.146155 -0.5358,-1.601426 -0.838172,-3.358494 -0.986838,-5.080017 -0.148666,-1.721523 -0.143624,-3.4075 -0.0646,-4.866741 0.696343,-7.262247 3.214903,-14.168195 7.045829,-20.320684 3.830926,-6.15249 8.974217,-11.55152 14.920023,-15.79993 5.945806,-4.24841 12.694127,-7.3462 19.73511,-8.896208 7.040984,-1.550008 14.37463,-1.552234 21.491088,0.390482 1.609679,0.446022 3.384601,1.179577 5.080954,2.146755 1.696353,0.967178 3.314137,2.167978 4.609543,3.54849 1.295406,1.380511 2.268434,2.940734 2.675273,4.626757 0.406839,1.686023 0.247489,3.497846 -0.72186,5.381558 -1.567751,1.634099 -3.383416,2.527003 -5.308629,2.864851 -1.925212,0.337849 -3.959973,0.120642 -5.965914,-0.465478 -2.005941,-0.58612 -3.983064,-1.541155 -5.793,-2.678962 -1.809937,-1.137808 -3.452688,-2.458388 -4.789887,-3.775601 -4.218876,-4.074447 -7.392221,-9.153217 -9.465992,-14.695237 -2.073771,-5.542019 -3.047968,-11.547289 -2.868548,-17.474733 0.17942,-5.927445 1.512457,-11.77706 4.053155,-17.00779 2.540697,-5.23072 6.289054,-9.84254 11.299115,-13.29439 1.599029,-1.20765 3.556889,-2.06668 5.617297,-2.52947 2.060408,-0.46279 4.223364,-0.52933 6.232586,-0.15198 2.009221,0.37735 3.864708,1.1986 5.310177,2.51137 1.445468,1.31278 2.480919,3.11709 2.85007,5.46058 0.267955,3.27151 -0.392463,6.25139 -1.713249,8.90405 -1.320785,2.65265 -3.301937,4.9781 -5.675449,6.94073 -2.373512,1.962637 -5.139383,3.562468 -8.029607,4.76391 -2.890223,1.201441 -5.904799,2.004492 -8.77572,2.373567 -4.291668,0.666838 -8.803682,0.57489 -13.224108,-0.21768 -4.420426,-0.792569 -8.749265,-2.285759 -12.674581,-4.421405 -3.925316,-2.135642 -7.44711,-4.913752 -10.253447,-8.276142 -2.806338,-3.36239 -4.897219,-7.30907 -5.960709,-11.78188 -0.552858,-1.72498 -0.599139,-3.59843 -0.235769,-5.38893 0.363371,-1.79051 1.136393,-3.49806 2.22214,-4.89124 1.085748,-1.39318 2.484221,-2.47199 4.098494,-3.005 1.614273,-0.53301 3.444347,-0.52023 5.393295,0.26978 3.050341,1.37814 5.461934,3.41074 7.324233,5.86761 1.862299,2.45688 3.175303,5.33803 4.028465,8.4133 0.853163,3.07526 1.246484,6.34464 1.269416,9.57796 0.02293,3.23332 -0.324525,6.43058 -0.952918,9.361614 -1.06256,5.109722 -3.029994,10.136765 -5.724583,14.78431 -2.69459,4.647545 -6.116335,8.915592 -10.087517,12.507322 -3.971183,3.591731 -8.491803,6.507144 -13.384141,8.449423 -4.892339,1.942278 -10.1563967,2.911422 -15.614455,2.610611 -1.2272083,-0.0042 -2.66090061,-0.286269 -4.0605134,-0.795181 -1.3996128,-0.508913 -2.7651462,-1.244697 -3.8560366,-2.156411 -1.0908904,-0.911713 -1.9071379,-1.999356 -2.2081791,-3.211987 -0.3010411,-1.21263 -0.086876,-2.550248 0.8830591,-3.961911 1.9064101,-1.555018 4.0194909,-2.426811 6.22893961,-2.78537 2.20944869,-0.358559 4.51526529,-0.203882 6.80714719,0.294038 2.2918819,0.497921 4.5698292,1.339087 6.7235392,2.353507 2.153709,1.01442 4.183182,2.202095 5.978114,3.393035 5.647014,3.968189 10.439091,9.117092 14.205298,14.975639 3.766207,5.858547 6.506543,12.42674 8.050075,19.23351 1.543532,6.806769 1.890259,13.852116 0.869248,20.664973 -1.021011,6.8128558 -3.40976,13.3932213 -7.337181,19.270028 -0.787284,1.0613822 -1.779516,2.2482937 -2.907584,3.367382 -1.128068,1.119089 -2.391971,2.170354 -3.722596,2.960445 -1.330625,0.79009 -2.727971,1.319005 -4.122926,1.393393 C 22.53528,15.447158 21.142717,15.067019 19.82166,14.039 19.112797,12.38322 19.066321,10.798639 19.476794,9.3118196 19.887266,7.825 20.754686,6.4359421 21.873617,5.1712092 c 1.11893,-1.2647328 2.489371,-2.4051406 3.905882,-3.3946599 1.416512,-0.98951937 2.879095,-1.82815025 4.182311,-2.4893293 6.637431,-3.0281683 13.877418,-4.300091 21.121089,-4.0587336 7.24367,0.2413574 14.491023,1.9959949 21.143184,5.02094709 6.652161,3.02495221 12.709129,7.32021911 17.57203,12.64283551 4.862901,5.322616 8.531735,11.672582 10.407627,18.806931 0.4186,1.617053 0.67081,3.520974 0.68143,5.47367 0.0106,1.952696 -0.22036,3.954165 -0.76817,5.766313 -0.547812,1.812149 -1.41245,3.434976 -2.669143,4.630387 -1.256693,1.195411 -2.90544,1.963406 -5.021467,2.06589 -2.199056,-0.540564 -3.880186,-1.666448 -5.135406,-3.164746 -1.255219,-1.498298 -2.084528,-3.369011 -2.579942,-5.399232 -0.495414,-2.030221 -0.656933,-4.219951 -0.576573,-6.356285 0.08036,-2.136334 0.402598,-4.219271 0.874701,-6.035907 1.419059,-5.690913 4.230663,-10.978536 7.993251,-15.545532 3.762588,-4.5669962 8.476159,-8.4133646 13.699159,-11.2217672 5.223,-2.80840258 10.95542,-4.5788394 16.75572,-4.9939723 5.80029,-0.4151328 11.66844,0.5250383 17.16291,3.1378515 1.84538,0.78094625 3.5683,2.0469493 4.99934,3.5998912 1.43105,1.552942 2.57022,3.3928229 3.24811,5.3215249 0.67788,1.9287019 0.89449,3.9462249 0.48039,5.8544519 -0.41409,1.908227 -1.45888,3.707156 -3.30378,5.198672 -1.11435,0.907089 -2.34652,1.585598 -3.64989,2.06767 -1.30337,0.482072 -2.67794,0.767709 -4.07706,0.889055 -1.39913,0.121347 -2.82281,0.0784 -4.22442,-0.09668 -1.4016,-0.175088 -2.78113,-0.48232 -4.09195,-0.889551"
       sodipodi:nodetypes="cssscssscssscssscssscssscssscssscssscssscssscssscssscssscssscssscssscssscssscssscssscssscssscssscssscssscssscssscssscssscssscssscssscssscssscssscssscssscssscssscssscssscssscssscssscssscssscssscssscssscssscssscssscssscssscssscssscssscssscssscssscssscssscssscssscssscssscssscssscssscssscssscssscssscssscssscssscssscssscssscssscssscssscssscssscssscssscssscssscsssc" />
  </g>
</svg>
